<svg width="26" height="20" viewBox="0 0 26 20" fill="none" xmlns="http://www.w3.org/2000/svg">
<path d="M23.8069 9.99283L23.3098 10.5972L13.4693 2.49243L13.4693 2.49238L13.4611 2.48576C13.1893 2.26665 12.8507 2.14717 12.5015 2.14717C12.1524 2.14717 11.8138 2.26665 11.5419 2.48576L11.5419 2.48571L11.5337 2.49244L1.69407 10.5969L1.19511 9.99033L11.811 1.24743C12.0049 1.08786 12.2482 1.00061 12.4993 1.00061C12.7505 1.00061 12.9938 1.08786 13.1877 1.24743L13.1878 1.24749L17.0736 4.44454L18.709 5.79V3.67231V1H20.1812V6.53255V7.0042L20.5452 7.3042L23.8069 9.99283ZM9.41645 18.4305L5.16732 18.4415V12.1064L12.5016 6.06581L19.834 12.1018V18.4414L15.5831 18.4297V14.5812C15.5831 14.1318 15.4046 13.7008 15.0868 13.383C14.7691 13.0652 14.3381 12.8867 13.8887 12.8867H11.1109C10.6615 12.8867 10.2305 13.0652 9.91274 13.383C9.59497 13.7008 9.41645 14.1318 9.41645 14.5812V18.4305ZM15.2776 18.4288C15.2785 18.4288 15.2794 18.4288 15.2803 18.4288H15.2776ZM15.5831 18.7353V18.7322C15.5831 18.7332 15.5831 18.7343 15.5831 18.7353Z" stroke="#204ECF" stroke-width="2"/>
</svg>
