<svg width="23" height="20" viewBox="0 0 23 20" fill="none" xmlns="http://www.w3.org/2000/svg">
<path d="M12.9222 2.4983L12.9219 2.49865L12.0369 3.40488L11.5003 3.95439L10.9637 3.40488L10.0788 2.49865L10.0779 2.49776C8.06565 0.430266 4.84516 0.138642 2.71827 1.93949L12.9222 2.4983ZM12.9222 2.4983C14.9394 0.429833 18.1558 0.138891 20.2824 1.93949L12.9222 2.4983ZM20.6706 10.1252L20.6708 10.125C22.9004 7.8384 22.7675 4.04754 20.2825 1.93962L20.6706 10.1252ZM20.6706 10.1252L11.9786 19.0445C11.9785 19.0445 11.9785 19.0446 11.9784 19.0446C11.7113 19.3185 11.2849 19.3185 11.0178 19.0446C11.0177 19.0446 11.0177 19.0445 11.0176 19.0445L2.32585 10.1255M20.6706 10.1252L2.32585 10.1255M2.32585 10.1255L2.32554 10.1252C0.100166 7.83848 0.233168 4.0475 2.71812 1.93962L2.32585 10.1255Z" stroke="#8E8E8E" stroke-width="1.5"/>
</svg>
