<svg width="20" height="20" viewBox="0 0 20 20" fill="none" xmlns="http://www.w3.org/2000/svg">
<path d="M9.91797 4.98413C9.42352 4.98413 8.94017 5.13075 8.52904 5.40546C8.11792 5.68016 7.79749 6.07061 7.60827 6.52742C7.41905 6.98424 7.36954 7.4869 7.46601 7.97186C7.56247 8.45681 7.80057 8.90227 8.1502 9.2519C8.49983 9.60153 8.94529 9.83963 9.43024 9.93609C9.9152 10.0326 10.4179 9.98305 10.8747 9.79383C11.3315 9.60461 11.7219 9.28418 11.9966 8.87306C12.2713 8.46193 12.418 7.97858 12.418 7.48413C12.4172 6.82132 12.1536 6.18587 11.6849 5.7172C11.2162 5.24852 10.5808 4.98489 9.91797 4.98413ZM9.91797 8.73413C9.67074 8.73413 9.42907 8.66082 9.22351 8.52347C9.01795 8.38612 8.85773 8.19089 8.76312 7.96249C8.66851 7.73408 8.64376 7.48274 8.69199 7.24027C8.74022 6.99779 8.85927 6.77506 9.03409 6.60025C9.2089 6.42543 9.43163 6.30638 9.67411 6.25815C9.91658 6.20992 10.1679 6.23467 10.3963 6.32928C10.6247 6.42389 10.82 6.58411 10.9573 6.78967C11.0947 6.99523 11.168 7.2369 11.168 7.48413C11.1676 7.81553 11.0358 8.13325 10.8014 8.36759C10.5671 8.60193 10.2494 8.73375 9.91797 8.73413Z" fill="#8E8E8E"/>
<path d="M14.7222 2.67627C13.5344 1.48879 11.9489 0.783378 10.2716 0.69618C8.59426 0.608982 6.94411 1.14618 5.63959 2.2041C4.33508 3.26201 3.46867 4.76565 3.2076 6.4248C2.94652 8.08396 3.30929 9.78101 4.22587 11.1884L8.9488 18.4389C9.0539 18.6003 9.19761 18.7328 9.36689 18.8246C9.53618 18.9163 9.72568 18.9644 9.91823 18.9644C10.1108 18.9644 10.3003 18.9163 10.4696 18.8246C10.6389 18.7328 10.7826 18.6003 10.8877 18.4389L15.6108 11.1884C16.4612 9.88284 16.8371 8.32459 16.6753 6.77485C16.5136 5.2251 15.824 3.77807 14.7222 2.67627ZM14.5634 10.5061L9.91825 17.637L5.27306 10.5061C3.85118 8.32335 4.15614 5.40225 5.99818 3.56014C6.51296 3.04534 7.12411 2.63698 7.79672 2.35837C8.46933 2.07976 9.19023 1.93636 9.91825 1.93636C10.6463 1.93636 11.3672 2.07976 12.0398 2.35837C12.7124 2.63698 13.3235 3.04534 13.8383 3.56014C15.6804 5.40225 15.9853 8.32335 14.5634 10.5061Z" fill="#8E8E8E"/>
</svg>
