<svg width="26" height="28" viewBox="0 0 26 28" fill="none" xmlns="http://www.w3.org/2000/svg">
<rect width="26" height="28" fill="white"/>
<path d="M11 8C11 8.55228 11.4477 9 12 9C12.5523 9 13 8.55228 13 8C13 7.44772 12.5523 7 12 7C11.4477 7 11 7.44772 11 8Z" stroke="#8E8E8E" stroke-width="2"/>
<path d="M11 16C11 16.5523 11.4477 17 12 17C12.5523 17 13 16.5523 13 16C13 15.4477 12.5523 15 12 15C11.4477 15 11 15.4477 11 16Z" stroke="#8E8E8E" stroke-width="2"/>
<path d="M11 24C11 24.5523 11.4477 25 12 25C12.5523 25 13 24.5523 13 24C13 23.4477 12.5523 23 12 23C11.4477 23 11 23.4477 11 24Z" stroke="#8E8E8E" stroke-width="2"/>
</svg>
