<svg width="26" height="22" viewBox="0 0 26 22" fill="none" xmlns="http://www.w3.org/2000/svg">
<path d="M13 9.625C13.862 9.625 14.6886 9.33527 15.2981 8.81954C15.9076 8.30382 16.25 7.60435 16.25 6.875C16.25 6.14565 15.9076 5.44618 15.2981 4.93046C14.6886 4.41473 13.862 4.125 13 4.125C12.138 4.125 11.3114 4.41473 10.7019 4.93046C10.0924 5.44618 9.75 6.14565 9.75 6.875C9.75 7.60435 10.0924 8.30382 10.7019 8.81954C11.3114 9.33527 12.138 9.625 13 9.625ZM13 8.25C12.569 8.25 12.1557 8.10513 11.851 7.84727C11.5462 7.58941 11.375 7.23967 11.375 6.875C11.375 6.51033 11.5462 6.16059 11.851 5.90273C12.1557 5.64487 12.569 5.5 13 5.5C13.431 5.5 13.8443 5.64487 14.149 5.90273C14.4538 6.16059 14.625 6.51033 14.625 6.875C14.625 7.23967 14.4538 7.58941 14.149 7.84727C13.8443 8.10513 13.431 8.25 13 8.25ZM8.125 16.5C7.90951 16.5 7.70285 16.5724 7.55048 16.7014C7.3981 16.8303 7.3125 17.0052 7.3125 17.1875C7.3125 17.3698 7.3981 17.5447 7.55048 17.6736C7.70285 17.8026 7.90951 17.875 8.125 17.875H17.875C18.0905 17.875 18.2972 17.8026 18.4495 17.6736C18.6019 17.5447 18.6875 17.3698 18.6875 17.1875C18.6875 17.0052 18.6019 16.8303 18.4495 16.7014C18.2972 16.5724 18.0905 16.5 17.875 16.5H8.125ZM4.0625 3.78125C4.0625 3.14307 4.36211 2.53103 4.89542 2.07977C5.42872 1.62851 6.15204 1.375 6.90625 1.375H19.0938C19.848 1.375 20.5713 1.62851 21.1046 2.07977C21.6379 2.53103 21.9375 3.14307 21.9375 3.78125V18.2188C21.9375 18.8569 21.6379 19.469 21.1046 19.9202C20.5713 20.3715 19.848 20.625 19.0938 20.625H6.90625C6.15204 20.625 5.42872 20.3715 4.89542 19.9202C4.36211 19.469 4.0625 18.8569 4.0625 18.2188V3.78125ZM6.90625 2.75C6.58302 2.75 6.27302 2.85865 6.04446 3.05205C5.8159 3.24544 5.6875 3.50775 5.6875 3.78125V13.75H8.125V11.6875C8.125 11.3228 8.29621 10.9731 8.60095 10.7152C8.9057 10.4574 9.31902 10.3125 9.75 10.3125H16.25C16.681 10.3125 17.0943 10.4574 17.399 10.7152C17.7038 10.9731 17.875 11.3228 17.875 11.6875V13.75H20.3125V3.78125C20.3125 3.50775 20.1841 3.24544 19.9555 3.05205C19.727 2.85865 19.417 2.75 19.0938 2.75H6.90625ZM5.6875 18.2188C5.6875 18.4923 5.8159 18.7546 6.04446 18.948C6.27302 19.1413 6.58302 19.25 6.90625 19.25H19.0938C19.417 19.25 19.727 19.1413 19.9555 18.948C20.1841 18.7546 20.3125 18.4923 20.3125 18.2188V15.125H5.6875V18.2188ZM16.25 11.6875H9.75V13.75H16.25V11.6875Z" fill="#8E8E8E"/>
</svg>
