<svg width="161" height="133" viewBox="0 0 161 133" fill="none" xmlns="http://www.w3.org/2000/svg">
<path d="M135.878 101.419L135.857 103.083C135.714 104.211 134.786 105.382 133.102 106.314L87.9048 131.133C87.1179 131.569 86.2365 131.914 85.2924 132.154C82.6629 132.876 79.6723 132.83 77.4677 131.989C77.1534 131.869 76.8385 131.734 76.5548 131.584L2.91187 90.9898C1.5896 90.268 0.944279 89.2927 0.944279 88.2858H0.927734L0.975427 85.5827L2.47095 86.6356C2.83255 86.3347 3.24183 86.0644 3.71439 85.7936L48.9106 60.9755C52.2793 59.127 57.364 58.9166 60.2767 60.5236L109.299 87.5366L133.919 101.103C133.966 101.132 134.014 101.163 134.061 101.193L135.878 101.419Z" fill="#B3B3B3"/>
<path d="M135.888 100.681L135.857 103.083C135.715 104.211 134.786 105.382 133.103 106.314L87.9054 131.133C87.1185 131.569 86.2371 131.914 85.293 132.154V87.5361H109.3L133.92 101.102C133.968 101.132 134.015 101.162 134.063 101.193L135.888 100.681Z" fill="#4D4D4D"/>
<path d="M99.5324 124.667L95.9141 126.666V124.621L99.5324 122.621V124.667Z" fill="#303030"/>
<path d="M99.1266 124.455V122.845L99.5324 122.621V124.667L95.9141 126.666V126.231L99.1266 124.455Z" fill="#F9F9F9"/>
<path d="M99.125 124.455L99.5309 124.667V122.621L99.125 122.845V124.455Z" fill="#DCDEDD"/>
<path d="M99.1266 124.455L97.7454 123.894L95.9141 124.914V126.23L99.1266 124.455Z" fill="#666666"/>
<path d="M97.7461 123.894L97.7422 123.609L99.1272 122.845V124.455L97.7461 123.894Z" fill="#404040"/>
<path d="M77.4688 124.759V131.989C79.669 132.834 82.662 132.869 85.3002 132.154V124.758H77.4688V124.759Z" fill="#999999"/>
<path d="M2.90593 88.7493L76.5542 129.332C79.4654 130.935 84.5496 130.735 87.9096 128.879L120.485 110.988L133.108 104.054C134.221 103.435 135.006 102.722 135.453 101.972C136.348 100.475 135.864 98.8713 133.921 97.8003L60.2713 57.2181C57.3605 55.6153 52.2758 55.815 48.9173 57.671L3.71818 82.4871C3.51816 82.6009 3.32592 82.7138 3.14294 82.8355C0.323189 84.6733 0.167456 87.2426 2.90593 88.7493Z" fill="#F2F2F2"/>
<path d="M56.5848 114.53L24.8867 97.0648L44.567 86.2214L76.2651 103.686L56.5848 114.53Z" fill="#F0F0F0"/>
<path d="M44.567 87.2558L75.3268 104.204L76.2656 103.686L44.567 86.2214L24.8867 97.0648L25.8255 97.5822L44.567 87.2558Z" fill="#DCDEDD"/>
<path d="M44.567 87.2558V86.2214L24.8867 97.0648L25.8255 97.5822L44.567 87.2558Z" fill="#808080"/>
<path d="M103.706 110.797L99.9141 112.875L103.723 114.966L104.03 115.548L104.923 115.625L108.715 113.548L103.706 110.797Z" fill="#CCCCCC"/>
<path d="M104.03 114.966L99.0195 112.216L102.812 110.137L107.822 112.888L104.03 114.966Z" fill="#999999"/>
<path d="M104.03 114.706L99.2565 112.085L99.0195 112.216L104.03 114.966L107.822 112.888L107.584 112.759L104.03 114.706Z" fill="white"/>
<path d="M107.823 112.888V113.47L104.031 115.548V114.966L107.823 112.888Z" fill="#1A1A1A"/>
<path d="M99.0195 112.216V112.797L104.03 115.548V114.966L99.0195 112.216Z" fill="#4D4D4D"/>
<path d="M97.0607 107.103L93.2695 109.181L97.0782 111.272L97.3858 111.853L98.2788 111.931L102.071 109.854L97.0607 107.103Z" fill="#CCCCCC"/>
<path d="M97.3852 111.272L92.375 108.522L96.1671 106.443L101.177 109.194L97.3852 111.272Z" fill="#999999"/>
<path d="M97.3852 111.012L92.6125 108.391L92.375 108.521L97.3852 111.272L101.177 109.194L100.94 109.064L97.3852 111.012Z" fill="white"/>
<path d="M101.179 109.195V109.777L97.3867 111.854V111.272L101.179 109.195Z" fill="#1A1A1A"/>
<path d="M92.375 108.521V109.103L97.3852 111.853V111.272L92.375 108.521Z" fill="#4D4D4D"/>
<path d="M90.4176 103.409L86.625 105.487L90.4346 107.578L90.7417 108.159L91.6352 108.238L95.4273 106.161L90.4176 103.409Z" fill="#CCCCCC"/>
<path d="M90.7407 107.578L85.7305 104.827L89.5231 102.75L94.5333 105.501L90.7407 107.578Z" fill="#999999"/>
<path d="M90.7407 107.318L85.9675 104.698L85.7305 104.828L90.7407 107.578L94.5333 105.501L94.2958 105.371L90.7407 107.318Z" fill="white"/>
<path d="M94.5348 105.501V106.083L90.7422 108.159V107.578L94.5348 105.501Z" fill="#1A1A1A"/>
<path d="M85.7305 104.827V105.408L90.7407 108.159V107.578L85.7305 104.827Z" fill="#4D4D4D"/>
<path d="M49.9332 80.6775L46.1406 82.7554L49.9498 84.8468L50.2578 85.4283L51.1509 85.5059L54.9439 83.4289L49.9332 80.6775Z" fill="#CCCCCC"/>
<path d="M50.2598 84.8469L45.25 82.0965L49.0411 80.0181L54.0519 82.7694L50.2598 84.8469Z" fill="#999999"/>
<path d="M50.2598 84.5867L45.4875 81.9668L45.25 82.0964L50.2598 84.8468L54.0519 82.7694L53.8153 82.6398L50.2598 84.5867Z" fill="white"/>
<path d="M54.0499 82.7695V83.3515L50.2578 85.4289V84.847L54.0499 82.7695Z" fill="#1A1A1A"/>
<path d="M45.25 82.0964V82.6775L50.2597 85.4288V84.8469L45.25 82.0964Z" fill="#4D4D4D"/>
<path d="M43.2916 76.9839L39.5 79.0618L43.3091 81.1532L43.6167 81.7352L44.5093 81.8122L48.3023 79.7353L43.2916 76.9839Z" fill="#CCCCCC"/>
<path d="M43.6157 81.1533L38.6055 78.4029L42.3976 76.325L47.4073 79.0754L43.6157 81.1533Z" fill="#999999"/>
<path d="M43.6157 80.8933L38.8425 78.2729L38.6055 78.403L43.6157 81.1534L47.4073 79.0755L47.1703 78.9459L43.6157 80.8933Z" fill="white"/>
<path d="M47.4088 79.0754V79.6574L43.6172 81.7353V81.1534L47.4088 79.0754Z" fill="#1A1A1A"/>
<path d="M38.6055 78.4028V78.9838L43.6157 81.7352V81.1533L38.6055 78.4028Z" fill="#4D4D4D"/>
<path d="M33.3395 71.4875L29.5469 73.5655L36.6644 77.4598L36.9715 78.0409L37.865 78.1184L41.6576 76.041L33.3395 71.4875Z" fill="#CCCCCC"/>
<path d="M36.97 77.46L28.6523 72.9065L32.4444 70.8286L40.7626 75.382L36.97 77.46Z" fill="#999999"/>
<path d="M36.97 77.199L28.8894 72.7761L28.6523 72.9066L36.97 77.46L40.7626 75.3821L40.5251 75.2516L36.97 77.199Z" fill="white"/>
<path d="M40.7613 75.3821V75.9636L36.9688 78.041V77.46L40.7613 75.3821Z" fill="#1A1A1A"/>
<path d="M28.6523 72.9065V73.4875L36.97 78.0409V77.4599L28.6523 72.9065Z" fill="#4D4D4D"/>
<path d="M80.7487 98.0393L76.957 100.117L83.7903 103.884L84.0979 104.465L84.9909 104.543L88.7825 102.465L80.7487 98.0393Z" fill="#CCCCCC"/>
<path d="M84.0964 103.884L76.0625 99.4578L79.8541 97.3804L87.889 101.807L84.0964 103.884Z" fill="#999999"/>
<path d="M84.0969 103.624L76.299 99.3286L76.0625 99.4577L84.0969 103.884L87.889 101.807L87.651 101.676L84.0969 103.624Z" fill="white"/>
<path d="M87.8902 101.807V102.388L84.0977 104.465V103.884L87.8902 101.807Z" fill="#1A1A1A"/>
<path d="M76.0625 99.4578V100.039L84.0964 104.465V103.884L76.0625 99.4578Z" fill="#4D4D4D"/>
<path d="M72.4244 86.7954L68.6328 88.8729L72.442 90.9647L72.7495 91.5457L73.643 91.6238L77.4351 89.5458L72.4244 86.7954Z" fill="#CCCCCC"/>
<path d="M72.749 90.9648L67.7383 88.2134L71.5304 86.136L76.5406 88.8869L72.749 90.9648Z" fill="#999999"/>
<path d="M72.749 90.7044L67.9758 88.084L67.7383 88.2136L72.749 90.9649L76.5406 88.887L76.3036 88.756L72.749 90.7044Z" fill="white"/>
<path d="M76.5416 88.887V89.4684L72.75 91.5459V90.9649L76.5416 88.887Z" fill="#1A1A1A"/>
<path d="M67.7383 88.2134V88.7949L72.749 91.5458V90.9648L67.7383 88.2134Z" fill="#4D4D4D"/>
<path d="M99.0143 101.519L95.2227 103.596L99.0313 105.688L99.3389 106.269L100.233 106.347L104.025 104.269L99.0143 101.519Z" fill="#CCCCCC"/>
<path d="M99.3379 105.688L94.3281 102.937L98.1207 100.86L103.13 103.611L99.3379 105.688Z" fill="#999999"/>
<path d="M99.3379 105.428L94.5656 102.808L94.3281 102.937L99.3379 105.688L103.13 103.611L102.893 103.481L99.3379 105.428Z" fill="white"/>
<path d="M103.129 103.611V104.192L99.3359 106.27V105.688L103.129 103.611Z" fill="#1A1A1A"/>
<path d="M94.3281 102.937V103.519L99.3379 106.269V105.688L94.3281 102.937Z" fill="#4D4D4D"/>
<path d="M92.3688 97.8245L88.5781 99.9024L92.3863 101.994L92.6939 102.576L93.5874 102.653L97.3795 100.575L92.3688 97.8245Z" fill="#CCCCCC"/>
<path d="M92.6933 101.994L87.6836 99.2439L91.4757 97.1655L96.4859 99.9164L92.6933 101.994Z" fill="#999999"/>
<path d="M92.6933 101.734L87.9201 99.1135L87.6836 99.244L92.6933 101.994L96.4859 99.9166L96.248 99.787L92.6933 101.734Z" fill="white"/>
<path d="M96.484 99.9165V100.498L92.6914 102.576V101.994L96.484 99.9165Z" fill="#1A1A1A"/>
<path d="M87.6836 99.2439V99.8245L92.6933 102.576V101.994L87.6836 99.2439Z" fill="#4D4D4D"/>
<path d="M85.7252 94.1306L81.9336 96.209L85.7432 98.3004L86.0503 98.8814L86.9433 98.9594L90.7359 96.8815L85.7252 94.1306Z" fill="#CCCCCC"/>
<path d="M86.0493 98.3005L81.0391 95.5491L84.8312 93.4717L89.8414 96.2221L86.0493 98.3005Z" fill="#999999"/>
<path d="M86.0493 98.0401L81.2766 95.4197L81.0391 95.5493L86.0493 98.3006L89.8414 96.2222L89.6039 96.0922L86.0493 98.0401Z" fill="white"/>
<path d="M89.8429 96.2222V96.8041L86.0508 98.8816V98.3005L89.8429 96.2222Z" fill="#1A1A1A"/>
<path d="M81.0391 95.5491V96.131L86.0493 98.8815V98.3004L81.0391 95.5491Z" fill="#4D4D4D"/>
<path d="M79.069 90.4885L75.2773 92.5664L79.0865 94.6578L79.3936 95.2403L80.2871 95.3169L84.0787 93.2399L79.069 90.4885Z" fill="#CCCCCC"/>
<path d="M79.393 94.658L74.3828 91.9075L78.1754 89.8296L83.1856 92.58L79.393 94.658Z" fill="#999999"/>
<path d="M79.393 94.398L74.6198 91.7776L74.3828 91.9072L79.393 94.6581L83.1856 92.5801L82.9481 92.4506L79.393 94.398Z" fill="white"/>
<path d="M83.1871 92.5801V93.162L79.3945 95.2404V94.658L83.1871 92.5801Z" fill="#1A1A1A"/>
<path d="M74.3828 91.9075V92.4889L79.393 95.2403V94.6579L74.3828 91.9075Z" fill="#4D4D4D"/>
<path d="M65.7804 83.1011L61.9883 85.1785L65.7969 87.2704L66.1045 87.8523L66.9985 87.9299L70.7901 85.852L65.7804 83.1011Z" fill="#CCCCCC"/>
<path d="M66.1035 87.2705L61.0938 84.5196L64.8859 82.4417L69.8961 85.1925L66.1035 87.2705Z" fill="#999999"/>
<path d="M66.1035 87.0103L61.3308 84.3894L61.0938 84.5194L66.1035 87.2704L69.8961 85.1924L69.6591 85.0629L66.1035 87.0103Z" fill="white"/>
<path d="M69.8942 85.1926V85.7741L66.1016 87.8525V87.2706L69.8942 85.1926Z" fill="#1A1A1A"/>
<path d="M61.0938 84.5195V85.101L66.1035 87.8524V87.2704L61.0938 84.5195Z" fill="#4D4D4D"/>
<path d="M58.6944 79.3572L54.9023 81.4346L58.712 83.526L59.0186 84.1084L59.9131 84.1855L63.7047 82.1076L58.6944 79.3572Z" fill="#CCCCCC"/>
<path d="M59.0205 83.5261L54.0117 80.7757L57.8028 78.6982L62.8136 81.4487L59.0205 83.5261Z" fill="#999999"/>
<path d="M59.0205 83.2661L54.2482 80.6453L54.0117 80.7758L59.0205 83.5262L62.8136 81.4488L62.5761 81.3182L59.0205 83.2661Z" fill="white"/>
<path d="M62.8126 81.4487V82.0302L59.0195 84.1086V83.5262L62.8126 81.4487Z" fill="#1A1A1A"/>
<path d="M54.0117 80.7756V81.3567L59.0205 84.1085V83.5261L54.0117 80.7756Z" fill="#4D4D4D"/>
<path d="M52.0499 75.6636L48.2578 77.741L52.0665 79.8324L52.374 80.4139L53.2676 80.4919L57.0597 78.4136L52.0499 75.6636Z" fill="#CCCCCC"/>
<path d="M52.373 79.8325L47.3633 77.0811L51.1549 75.0042L56.1656 77.7551L52.373 79.8325Z" fill="#999999"/>
<path d="M52.373 79.5725L47.6003 76.9517L47.3633 77.0812L52.373 79.8326L56.1656 77.7551L55.9276 77.6251L52.373 79.5725Z" fill="white"/>
<path d="M56.1637 77.7551V78.3357L52.3711 80.4141V79.8326L56.1637 77.7551Z" fill="#1A1A1A"/>
<path d="M47.3633 77.0811V77.6635L52.373 80.4139V79.8324L47.3633 77.0811Z" fill="#4D4D4D"/>
<path d="M45.5699 72.0356L41.7773 74.1131L45.587 76.2054L45.895 76.786L46.7876 76.8645L50.5807 74.7865L45.5699 72.0356Z" fill="#CCCCCC"/>
<path d="M45.8935 76.2055L40.8828 73.4542L44.6749 71.3762L49.6847 74.1271L45.8935 76.2055Z" fill="#999999"/>
<path d="M45.8935 75.9451L41.1203 73.3242L40.8828 73.4543L45.8935 76.2056L49.6847 74.1272L49.4477 73.9972L45.8935 75.9451Z" fill="white"/>
<path d="M49.6857 74.1272V74.7091L45.8945 76.7861V76.2056L49.6857 74.1272Z" fill="#1A1A1A"/>
<path d="M40.8828 73.4541V74.0356L45.8935 76.786V76.2055L40.8828 73.4541Z" fill="#4D4D4D"/>
<path d="M39.1661 68.3025L35.375 70.3804L39.1841 72.4713L39.4912 73.0533L40.3852 73.1309L44.1769 71.0539L39.1661 68.3025Z" fill="#CCCCCC"/>
<path d="M39.4902 72.4714L34.4805 69.7215L38.2726 67.6436L43.2828 70.3945L39.4902 72.4714Z" fill="#999999"/>
<path d="M39.4902 72.2119L34.7175 69.5911L34.4805 69.7216L39.4902 72.4715L43.2828 70.3946L43.0453 70.2645L39.4902 72.2119Z" fill="white"/>
<path d="M43.2809 70.3945V70.9756L39.4883 73.0535V72.4715L43.2809 70.3945Z" fill="#1A1A1A"/>
<path d="M34.4805 69.7214V70.3029L39.4902 73.0534V72.4714L34.4805 69.7214Z" fill="#4D4D4D"/>
<path d="M106.464 105.582L102.672 107.659L109.506 111.426L109.814 112.007L110.706 112.085L114.499 110.007L106.464 105.582Z" fill="#CCCCCC"/>
<path d="M109.816 111.426L101.781 107L105.573 104.923L113.607 109.348L109.816 111.426Z" fill="#999999"/>
<path d="M109.816 111.166L102.018 106.87L101.781 107L109.816 111.426L113.607 109.348L113.371 109.218L109.816 111.166Z" fill="white"/>
<path d="M113.608 109.348V109.93L109.816 112.007V111.426L113.608 109.348Z" fill="#1A1A1A"/>
<path d="M101.781 107V107.581L109.816 112.007V111.426L101.781 107Z" fill="#4D4D4D"/>
<path d="M78.0148 83.4526L74.2227 85.5306L78.0323 87.622L78.3394 88.2034L79.2324 88.281L83.0245 86.204L78.0148 83.4526Z" fill="#CCCCCC"/>
<path d="M78.3384 87.6221L73.3281 84.8716L77.1202 82.7937L82.13 85.5451L78.3384 87.6221Z" fill="#999999"/>
<path d="M78.3384 87.3621L73.5651 84.7412L73.3281 84.8717L78.3384 87.6222L82.13 85.5452L81.893 85.4146L78.3384 87.3621Z" fill="white"/>
<path d="M82.1315 85.5452V86.1262L78.3398 88.2036V87.6222L82.1315 85.5452Z" fill="#1A1A1A"/>
<path d="M73.3281 84.8716V85.4531L78.3384 88.2035V87.622L73.3281 84.8716Z" fill="#4D4D4D"/>
<path d="M104.194 98.0393L100.402 100.117L104.212 102.209L104.52 102.79L105.413 102.868L109.206 100.79L104.194 98.0393Z" fill="#CCCCCC"/>
<path d="M104.521 102.209L99.5117 99.4578L103.303 97.3804L108.313 100.131L104.521 102.209Z" fill="#999999"/>
<path d="M104.521 101.948L99.7492 99.3286L99.5117 99.4577L104.521 102.209L108.313 100.131L108.077 100.001L104.521 101.948Z" fill="white"/>
<path d="M108.311 100.131V100.713L104.52 102.79V102.209L108.311 100.131Z" fill="#1A1A1A"/>
<path d="M99.5117 99.4578V100.039L104.521 102.79V102.209L99.5117 99.4578Z" fill="#4D4D4D"/>
<path d="M110.487 101.526L106.695 103.604L110.505 105.695L110.812 106.277L111.705 106.354L115.498 104.277L110.487 101.526Z" fill="#CCCCCC"/>
<path d="M110.811 105.696L105.801 102.945L109.592 100.867L114.603 103.618L110.811 105.696Z" fill="#999999"/>
<path d="M110.811 105.436L106.039 102.814L105.801 102.945L110.811 105.696L114.604 103.618L114.366 103.488L110.811 105.436Z" fill="white"/>
<path d="M114.605 103.618V104.199L110.812 106.277V105.696L114.605 103.618Z" fill="#1A1A1A"/>
<path d="M105.801 102.945V103.526L110.811 106.277V105.695L105.801 102.945Z" fill="#4D4D4D"/>
<path d="M97.7809 94.4897L93.9883 96.5672L97.7979 98.6586L98.105 99.2406L98.9985 99.3181L102.791 97.2407L97.7809 94.4897Z" fill="#CCCCCC"/>
<path d="M98.1069 98.6587L93.0977 95.9083L96.8888 93.8308L101.9 96.5817L98.1069 98.6587Z" fill="#999999"/>
<path d="M98.1069 98.3992L93.3337 95.7783L93.0977 95.9084L98.1069 98.6588L101.9 96.5818L101.662 96.4513L98.1069 98.3992Z" fill="white"/>
<path d="M101.898 96.5818V97.1633L98.1055 99.2407V98.6588L101.898 96.5818Z" fill="#1A1A1A"/>
<path d="M93.0977 95.9082V96.4892L98.1069 99.2406V98.6587L93.0977 95.9082Z" fill="#4D4D4D"/>
<path d="M91.3146 90.7888L87.5234 92.8667L91.3326 94.9577L91.6402 95.5396L92.5337 95.6172L96.3253 93.5402L91.3146 90.7888Z" fill="#CCCCCC"/>
<path d="M91.6396 94.9576L86.6289 92.2076L90.421 90.1301L95.4312 92.8806L91.6396 94.9576Z" fill="#999999"/>
<path d="M91.6396 94.698L86.8664 92.0776L86.6289 92.2068L91.6396 94.9577L95.4312 92.8807L95.1942 92.7502L91.6396 94.698Z" fill="white"/>
<path d="M95.4322 92.8806V93.4621L91.6406 95.5396V94.9576L95.4322 92.8806Z" fill="#1A1A1A"/>
<path d="M86.6289 92.2075V92.7895L91.6396 95.5394V94.9575L86.6289 92.2075Z" fill="#4D4D4D"/>
<path d="M84.6588 87.1467L80.8672 89.2247L84.6758 91.316L84.9834 91.898L85.8769 91.9756L89.6695 89.8976L84.6588 87.1467Z" fill="#CCCCCC"/>
<path d="M84.9829 91.3161L79.9727 88.5648L83.7652 86.4873L88.775 89.2377L84.9829 91.3161Z" fill="#999999"/>
<path d="M84.9829 91.0562L80.2101 88.4353L79.9727 88.5649L84.9829 91.3163L88.775 89.2379L88.5375 89.1083L84.9829 91.0562Z" fill="white"/>
<path d="M88.7765 89.2378V89.8202L84.9844 91.8981V91.3162L88.7765 89.2378Z" fill="#1A1A1A"/>
<path d="M79.9727 88.5647V89.1471L84.9829 91.898V91.3161L79.9727 88.5647Z" fill="#4D4D4D"/>
<path d="M71.3732 79.7593L67.582 81.8363L71.3907 83.9277L71.6983 84.5096L72.5918 84.5872L76.3834 82.5102L71.3732 79.7593Z" fill="#CCCCCC"/>
<path d="M71.6973 83.9278L66.6875 81.1778L70.4791 79.0999L75.4898 81.8503L71.6973 83.9278Z" fill="#999999"/>
<path d="M71.6973 83.6682L66.9245 81.0469L66.6875 81.1778L71.6973 83.9278L75.4898 81.8504L75.2523 81.7208L71.6973 83.6682Z" fill="white"/>
<path d="M75.4879 81.8503V82.4318L71.6953 84.5098V83.9278L75.4879 81.8503Z" fill="#1A1A1A"/>
<path d="M66.6875 81.1777V81.7592L71.6972 84.5097V83.9277L66.6875 81.1777Z" fill="#4D4D4D"/>
<path d="M64.2838 76.0156L60.4922 78.0922L64.3013 80.1845L64.6089 80.7655L65.5019 80.8435L69.2936 78.7656L64.2838 76.0156Z" fill="#CCCCCC"/>
<path d="M64.6084 80.1845L59.5977 77.4336L63.3898 75.3557L68.4005 78.1066L64.6084 80.1845Z" fill="#999999"/>
<path d="M64.6084 79.9241L59.8352 77.3037L59.5977 77.4333L64.6084 80.1847L68.4005 78.1067L68.1625 77.9772L64.6084 79.9241Z" fill="white"/>
<path d="M68.4015 78.1067V78.6882L64.6094 80.7656V80.1846L68.4015 78.1067Z" fill="#1A1A1A"/>
<path d="M59.5977 77.4336V78.0151L64.6084 80.7655V80.1845L59.5977 77.4336Z" fill="#4D4D4D"/>
<path d="M57.6393 72.3203L53.8477 74.3987L57.6563 76.4901L57.9634 77.0716L58.8569 77.1496L62.65 75.0721L57.6393 72.3203Z" fill="#CCCCCC"/>
<path d="M57.9629 76.4902L52.9531 73.7393L56.7462 71.6614L61.7555 74.4127L57.9629 76.4902Z" fill="#999999"/>
<path d="M57.9629 76.2302L53.1906 73.6094L52.9531 73.7394L57.9629 76.4903L61.7555 74.4129L61.5185 74.2824L57.9629 76.2302Z" fill="white"/>
<path d="M61.7535 74.4128V74.9943L57.9609 77.0718V76.4903L61.7535 74.4128Z" fill="#1A1A1A"/>
<path d="M52.9531 73.7393V74.3207L57.9629 77.0716V76.4902L52.9531 73.7393Z" fill="#4D4D4D"/>
<path d="M51.1593 68.6931L47.3672 70.7706L51.1768 72.8629L51.4834 73.4444L52.3769 73.5215L56.1695 71.4445L51.1593 68.6931Z" fill="#CCCCCC"/>
<path d="M51.4824 72.863L46.4727 70.1116L50.2652 68.0342L55.275 70.7856L51.4824 72.863Z" fill="#999999"/>
<path d="M51.4824 72.6025L46.7102 69.9817L46.4727 70.1117L51.4824 72.8631L55.275 70.7856L55.038 70.6551L51.4824 72.6025Z" fill="white"/>
<path d="M55.2731 70.7856V71.3667L51.4805 73.4446V72.8631L55.2731 70.7856Z" fill="#1A1A1A"/>
<path d="M46.4727 70.1116V70.6926L51.4824 73.4444V72.8629L46.4727 70.1116Z" fill="#4D4D4D"/>
<path d="M44.756 64.9604L40.9648 67.0379L44.7735 69.1298L45.0811 69.7113L45.9741 69.7893L49.7662 67.7114L44.756 64.9604Z" fill="#CCCCCC"/>
<path d="M45.0805 69.1297L40.0703 66.3792L43.8624 64.3018L48.8727 67.0517L45.0805 69.1297Z" fill="#999999"/>
<path d="M45.0805 68.8701L40.3073 66.2488L40.0703 66.3788L45.0805 69.1297L48.8727 67.0518L48.6356 66.9222L45.0805 68.8701Z" fill="white"/>
<path d="M48.8741 67.0518V67.6337L45.082 69.7112V69.1297L48.8741 67.0518Z" fill="#1A1A1A"/>
<path d="M40.0703 66.3792V66.9602L45.0805 69.7111V69.1296L40.0703 66.3792Z" fill="#4D4D4D"/>
<path d="M109.28 94.7981L105.488 96.8751L109.297 98.967L109.605 99.548L110.499 99.626L114.291 97.5485L109.28 94.7981Z" fill="#CCCCCC"/>
<path d="M109.607 98.967L104.598 96.2161L108.389 94.1387L113.399 96.89L109.607 98.967Z" fill="#999999"/>
<path d="M109.607 98.707L104.834 96.0862L104.598 96.2162L109.607 98.9671L113.399 96.8901L113.162 96.7591L109.607 98.707Z" fill="white"/>
<path d="M113.398 96.8901V97.4707L109.605 99.5481V98.9671L113.398 96.8901Z" fill="#1A1A1A"/>
<path d="M104.598 96.2161V96.798L109.607 99.548V98.967L104.598 96.2161Z" fill="#4D4D4D"/>
<path d="M115.573 98.2839L111.781 100.362L115.59 102.453L115.898 103.035L116.791 103.112L120.583 101.035L115.573 98.2839Z" fill="#CCCCCC"/>
<path d="M115.896 102.453L110.887 99.7027L114.679 97.6252L119.689 100.376L115.896 102.453Z" fill="#999999"/>
<path d="M115.897 102.193L111.124 99.5723L110.887 99.7028L115.897 102.453L119.689 100.376L119.452 100.245L115.897 102.193Z" fill="white"/>
<path d="M119.687 100.376V100.958L115.895 103.035V102.453L119.687 100.376Z" fill="#1A1A1A"/>
<path d="M110.887 99.7026V100.284L115.896 103.035V102.453L110.887 99.7026Z" fill="#4D4D4D"/>
<path d="M52.9292 59.8157L50.8711 60.8936L54.6802 62.9855L54.9878 63.5661L55.8808 63.6441L57.9394 62.5666L52.9292 59.8157Z" fill="#CCCCCC"/>
<path d="M54.9873 62.9856L49.9766 60.2342L52.0352 59.1562L57.0459 61.9071L54.9873 62.9856Z" fill="#999999"/>
<path d="M54.9873 62.7251L50.2131 60.1042L49.9766 60.2343L54.9873 62.9857L57.0459 61.9072L56.8079 61.7776L54.9873 62.7251Z" fill="white"/>
<path d="M57.0469 61.9072V62.4887L54.9883 63.5662V62.9857L57.0469 61.9072Z" fill="#1A1A1A"/>
<path d="M49.9766 60.2341V60.8156L54.9873 63.5661V62.9855L49.9766 60.2341Z" fill="#4D4D4D"/>
<path d="M59.3823 63.427L57.3242 64.505L61.1334 66.5964L61.4414 67.1788L62.334 67.2554L64.3926 66.1779L59.3823 63.427Z" fill="#CCCCCC"/>
<path d="M61.4399 66.5963L56.4297 63.8449L58.4878 62.7683L63.498 65.5187L61.4399 66.5963Z" fill="#999999"/>
<path d="M61.4399 66.3362L56.6672 63.7158L56.4297 63.8449L61.4399 66.5963L63.498 65.5188L63.2605 65.3883L61.4399 66.3362Z" fill="white"/>
<path d="M63.4995 65.5188V66.1003L61.4414 67.1787V66.5963L63.4995 65.5188Z" fill="#1A1A1A"/>
<path d="M56.4297 63.845V64.4269L61.4399 67.1787V66.5963L56.4297 63.845Z" fill="#4D4D4D"/>
<path d="M65.832 67.0381L63.7734 68.1165L67.5831 70.2074L67.8906 70.7889L68.7842 70.867L70.8418 69.7895L65.832 67.0381Z" fill="#CCCCCC"/>
<path d="M67.8926 70.2073L62.8828 67.4569L64.9409 66.3794L69.9507 69.1298L67.8926 70.2073Z" fill="#999999"/>
<path d="M67.8926 69.9478L63.1193 67.3269L62.8828 67.4569L67.8926 70.2074L69.9507 69.1299L69.7141 68.9998L67.8926 69.9478Z" fill="white"/>
<path d="M69.9487 69.1299V69.7114L67.8906 70.7889V70.2074L69.9487 69.1299Z" fill="#1A1A1A"/>
<path d="M62.8828 67.4568V68.0383L67.8926 70.7887V70.2072L62.8828 67.4568Z" fill="#4D4D4D"/>
<path d="M72.2896 70.6497L70.2305 71.7272L74.0401 73.8186L74.3472 74.4L75.2402 74.4776L77.2993 73.4001L72.2896 70.6497Z" fill="#CCCCCC"/>
<path d="M74.3457 73.8186L69.3359 71.0677L71.395 69.9902L76.4043 72.7407L74.3457 73.8186Z" fill="#999999"/>
<path d="M74.3462 73.5586L69.5729 70.9382L69.3359 71.0678L74.3462 73.8187L76.4043 72.7407L76.1673 72.6102L74.3462 73.5586Z" fill="white"/>
<path d="M76.4024 72.7407V73.3222L74.3438 74.4006V73.8187L76.4024 72.7407Z" fill="#1A1A1A"/>
<path d="M69.3359 71.0679V71.6498L74.3457 74.4007V73.8188L69.3359 71.0679Z" fill="#4D4D4D"/>
<path d="M78.7417 74.2612L76.6836 75.3378L80.4927 77.4301L80.8003 78.0112L81.6938 78.0887L83.7524 77.0117L78.7417 74.2612Z" fill="#CCCCCC"/>
<path d="M80.7988 77.4302L75.7891 74.6793L77.8467 73.6013L82.8574 76.3522L80.7988 77.4302Z" fill="#999999"/>
<path d="M80.7988 77.1697L76.0261 74.5493L75.7891 74.6784L80.7988 77.4303L82.8574 76.3523L82.6199 76.2218L80.7988 77.1697Z" fill="white"/>
<path d="M82.8555 76.3523V76.9338L80.7969 78.0113V77.4303L82.8555 76.3523Z" fill="#1A1A1A"/>
<path d="M75.7891 74.6792V75.2598L80.7988 78.0111V77.4301L75.7891 74.6792Z" fill="#4D4D4D"/>
<path d="M85.1948 77.8713L83.1367 78.9498L86.9459 81.0412L87.2534 81.6227L88.1474 81.7007L90.2051 80.6218L85.1948 77.8713Z" fill="#CCCCCC"/>
<path d="M87.2524 81.0413L82.2422 78.2904L84.3003 77.2124L89.3105 79.9628L87.2524 81.0413Z" fill="#999999"/>
<path d="M87.2524 80.7813L82.4797 78.1609L82.2422 78.2905L87.2524 81.0414L89.3105 79.9629L89.074 79.8334L87.2524 80.7813Z" fill="white"/>
<path d="M89.312 79.9629V80.5453L87.2539 81.6228V81.0413L89.312 79.9629Z" fill="#1A1A1A"/>
<path d="M82.2422 78.2903V78.8718L87.2524 81.6227V81.0412L82.2422 78.2903Z" fill="#4D4D4D"/>
<path d="M91.6475 81.4834L89.5898 82.5614L93.3985 84.6523L93.7061 85.2338L94.5991 85.3118L96.6577 84.2343L91.6475 81.4834Z" fill="#CCCCCC"/>
<path d="M93.7055 84.6524L88.6953 81.901L90.7539 80.8245L95.7637 83.5749L93.7055 84.6524Z" fill="#999999"/>
<path d="M93.7055 84.3919L88.9323 81.7715L88.6953 81.9011L93.7055 84.6524L95.7637 83.5749L95.5262 83.4444L93.7055 84.3919Z" fill="white"/>
<path d="M95.7651 83.575V84.1564L93.707 85.234V84.6525L95.7651 83.575Z" fill="#1A1A1A"/>
<path d="M88.6953 81.9011V82.4835L93.7055 85.234V84.6525L88.6953 81.9011Z" fill="#4D4D4D"/>
<path d="M98.1016 85.0945L96.043 86.1725L99.8526 88.2639L100.16 88.8449L101.053 88.9229L103.112 87.8449L98.1016 85.0945Z" fill="#CCCCCC"/>
<path d="M100.159 88.264L95.1484 85.5135L97.2066 84.4355L102.217 87.186L100.159 88.264Z" fill="#999999"/>
<path d="M100.159 88.0039L95.3854 85.3831L95.1484 85.5136L100.159 88.264L102.217 87.186L101.979 87.056L100.159 88.0039Z" fill="white"/>
<path d="M102.218 87.186V87.7675L100.16 88.845V88.264L102.218 87.186Z" fill="#1A1A1A"/>
<path d="M95.1484 85.5134V86.0945L100.159 88.8449V88.2639L95.1484 85.5134Z" fill="#4D4D4D"/>
<path d="M104.554 88.7061L102.496 89.7836L106.305 91.875L106.613 92.4569L107.506 92.5345L109.565 91.456L104.554 88.7061Z" fill="#CCCCCC"/>
<path d="M106.612 91.8755L101.602 89.1242L103.66 88.0471L108.67 90.7971L106.612 91.8755Z" fill="#999999"/>
<path d="M106.612 91.615L101.839 88.9946L101.602 89.1242L106.612 91.8751L108.67 90.7971L108.433 90.6671L106.612 91.615Z" fill="white"/>
<path d="M108.672 90.7971V91.3791L106.613 92.457V91.8756L108.672 90.7971Z" fill="#1A1A1A"/>
<path d="M101.602 89.1243V89.7062L106.612 92.4571V91.8756L101.602 89.1243Z" fill="#4D4D4D"/>
<path d="M111.007 92.3171L108.949 93.3947L112.758 95.4865L113.065 96.0675L113.959 96.1456L116.018 95.068L111.007 92.3171Z" fill="#CCCCCC"/>
<path d="M113.065 95.4866L108.055 92.7348L110.114 91.6577L115.124 94.4086L113.065 95.4866Z" fill="#999999"/>
<path d="M113.065 95.2261L108.292 92.6062L108.055 92.7349L113.065 95.4867L115.124 94.4087L114.887 94.2791L113.065 95.2261Z" fill="white"/>
<path d="M115.125 94.4087V94.9906L113.066 96.0677V95.4867L115.125 94.4087Z" fill="#1A1A1A"/>
<path d="M108.055 92.7349V93.3173L113.065 96.0677V95.4867L108.055 92.7349Z" fill="#4D4D4D"/>
<path d="M117.46 95.928L115.402 97.0055L119.211 99.0978L119.52 99.6788L120.412 99.7564L122.47 98.6789L117.46 95.928Z" fill="#CCCCCC"/>
<path d="M119.519 99.0979L114.508 96.3465L116.566 95.269L121.576 98.0199L119.519 99.0979Z" fill="#999999"/>
<path d="M119.519 98.8379L114.745 96.2166L114.508 96.3466L119.519 99.098L121.576 98.02L121.339 97.89L119.519 98.8379Z" fill="white"/>
<path d="M121.577 98.02V98.602L119.52 99.679V99.098L121.577 98.02Z" fill="#1A1A1A"/>
<path d="M114.508 96.3464V96.9284L119.519 99.6788V99.0978L114.508 96.3464Z" fill="#4D4D4D"/>
<path d="M123.914 99.54L121.855 100.617L125.665 102.708L125.972 103.29L126.865 103.368L128.924 102.29L123.914 99.54Z" fill="#CCCCCC"/>
<path d="M125.971 102.709L120.961 99.9581L123.019 98.8806L128.029 101.631L125.971 102.709Z" fill="#999999"/>
<path d="M125.971 102.449L121.198 99.8281L120.961 99.9582L125.971 102.709L128.03 101.631L127.792 101.501L125.971 102.449Z" fill="white"/>
<path d="M128.027 101.631V102.214L125.969 103.291V102.709L128.027 101.631Z" fill="#1A1A1A"/>
<path d="M120.961 99.958V100.539L125.971 103.291V102.708L120.961 99.958Z" fill="#4D4D4D"/>
<path d="M102.871 91.2478L99.0781 93.3248L102.888 95.4171L103.196 95.9986L104.089 96.0762L107.881 93.9987L102.871 91.2478Z" fill="#CCCCCC"/>
<path d="M103.194 95.4172L98.1836 92.6663L101.976 90.5884L106.986 93.3397L103.194 95.4172Z" fill="#999999"/>
<path d="M103.194 95.1568L98.4201 92.5364L98.1836 92.6664L103.194 95.4173L106.986 93.3399L106.748 93.2094L103.194 95.1568Z" fill="white"/>
<path d="M106.987 93.3398V93.9213L103.195 95.9988V95.4173L106.987 93.3398Z" fill="#1A1A1A"/>
<path d="M98.1836 92.6663V93.2477L103.194 95.9986V95.4172L98.1836 92.6663Z" fill="#4D4D4D"/>
<path d="M96.4015 87.5466L92.6094 89.6246L96.418 91.7164L96.7261 92.297L97.6196 92.3755L101.412 90.298L96.4015 87.5466Z" fill="#CCCCCC"/>
<path d="M96.7246 91.7165L91.7148 88.9647L95.507 86.8877L100.517 89.6386L96.7246 91.7165Z" fill="#999999"/>
<path d="M96.7246 91.4561L91.9514 88.8352L91.7148 88.9648L96.7246 91.7166L100.517 89.6387L100.279 89.5077L96.7246 91.4561Z" fill="white"/>
<path d="M100.515 89.6387V90.2197L96.7227 92.2981V91.7166L100.515 89.6387Z" fill="#1A1A1A"/>
<path d="M91.7148 88.9646V89.5465L96.7246 92.2979V91.7164L91.7148 88.9646Z" fill="#4D4D4D"/>
<path d="M89.7487 83.905L85.957 85.9825L89.7667 88.0739L90.0737 88.6563L90.9668 88.7339L94.7594 86.6559L89.7487 83.905Z" fill="#CCCCCC"/>
<path d="M90.0727 88.074L85.0625 85.3236L88.8546 83.2461L93.8648 85.9965L90.0727 88.074Z" fill="#999999"/>
<path d="M90.0727 87.8145L85.3 85.1936L85.0625 85.3236L90.0727 88.0741L93.8648 85.9966L93.6274 85.8661L90.0727 87.8145Z" fill="white"/>
<path d="M93.8663 85.9966V86.5781L90.0742 88.6565V88.074L93.8663 85.9966Z" fill="#1A1A1A"/>
<path d="M85.0625 85.3235V85.905L90.0727 88.6563V88.0739L85.0625 85.3235Z" fill="#4D4D4D"/>
<path d="M83.0226 80.1213L79.2305 82.1993L83.0396 84.2902L83.3467 84.8717L84.2402 84.9502L88.0323 82.8722L83.0226 80.1213Z" fill="#CCCCCC"/>
<path d="M83.3452 84.2901L78.3359 81.5396L82.1276 79.4626L87.1383 82.2131L83.3452 84.2901Z" fill="#999999"/>
<path d="M83.3457 84.0305L78.5725 81.4097L78.3359 81.5397L83.3457 84.2902L87.1388 82.2122L86.9003 82.0826L83.3457 84.0305Z" fill="white"/>
<path d="M87.1368 82.2131V82.7946L83.3438 84.8716V84.2901L87.1368 82.2131Z" fill="#1A1A1A"/>
<path d="M78.3359 81.5396V82.121L83.3452 84.8715V84.29L78.3359 81.5396Z" fill="#4D4D4D"/>
<path d="M76.4601 76.5166L72.668 78.5945L76.4771 80.6864L76.7847 81.2674L77.6777 81.3454L81.4698 79.268L76.4601 76.5166Z" fill="#CCCCCC"/>
<path d="M76.7832 80.6865L71.7734 77.9351L75.5651 75.8577L80.5753 78.6086L76.7832 80.6865Z" fill="#999999"/>
<path d="M76.7837 80.4261L72.0104 77.8057L71.7734 77.9352L76.7837 80.6866L80.5758 78.6087L80.3388 78.4786L76.7837 80.4261Z" fill="white"/>
<path d="M80.5773 78.6086V79.1901L76.7852 81.2676V80.6866L80.5773 78.6086Z" fill="#1A1A1A"/>
<path d="M71.7734 77.9351V78.517L76.7832 81.2674V80.6864L71.7734 77.9351Z" fill="#4D4D4D"/>
<path d="M69.3746 72.7732L65.582 74.8506L69.3917 76.942L69.6987 77.524L70.5923 77.6011L74.3844 75.5236L69.3746 72.7732Z" fill="#CCCCCC"/>
<path d="M69.6968 76.9422L64.6875 74.1913L68.4791 72.1143L73.4889 74.8647L69.6968 76.9422Z" fill="#999999"/>
<path d="M69.6973 76.6826L64.924 74.0618L64.6875 74.1913L69.6973 76.9422L73.4894 74.8648L73.2523 74.7347L69.6973 76.6826Z" fill="white"/>
<path d="M73.4874 74.8647V75.4462L69.6953 77.5242V76.9422L73.4874 74.8647Z" fill="#1A1A1A"/>
<path d="M64.6875 74.1912V74.7731L69.6968 77.524V76.9421L64.6875 74.1912Z" fill="#4D4D4D"/>
<path d="M62.7296 69.0791L58.9375 71.1566L62.7471 73.2484L63.0542 73.8294L63.9477 73.9075L67.7398 71.83L62.7296 69.0791Z" fill="#CCCCCC"/>
<path d="M63.0527 73.2485L58.043 70.4972L61.8346 68.4202L66.8448 71.1711L63.0527 73.2485Z" fill="#999999"/>
<path d="M63.0527 72.9885L58.28 70.3677L58.043 70.4973L63.0527 73.2486L66.8448 71.1712L66.6078 71.0402L63.0527 72.9885Z" fill="white"/>
<path d="M66.8429 71.1711V71.7522L63.0508 73.8296V73.2486L66.8429 71.1711Z" fill="#1A1A1A"/>
<path d="M58.043 70.4971V71.079L63.0527 73.8295V73.2484L58.043 70.4971Z" fill="#4D4D4D"/>
<path d="M56.2452 65.4517L52.4531 67.5287L56.2623 69.621L56.5698 70.202L57.4629 70.28L61.2555 68.2026L56.2452 65.4517Z" fill="#CCCCCC"/>
<path d="M56.5688 69.6211L51.5586 66.8692L55.3517 64.7922L60.3609 67.5431L56.5688 69.6211Z" fill="#999999"/>
<path d="M56.5688 69.3606L51.7956 66.7397L51.5586 66.8693L56.5688 69.6212L60.3609 67.5432L60.1239 67.4132L56.5688 69.3606Z" fill="white"/>
<path d="M60.3624 67.5432V68.1252L56.5703 70.2022V69.6211L60.3624 67.5432Z" fill="#1A1A1A"/>
<path d="M51.5586 66.8691V67.4516L56.5688 70.202V69.621L51.5586 66.8691Z" fill="#4D4D4D"/>
<path d="M49.8424 61.7183L46.0508 63.7962L49.8594 65.8876L50.1675 66.47L51.0605 66.5471L54.8521 64.4696L49.8424 61.7183Z" fill="#CCCCCC"/>
<path d="M50.167 65.8875L45.1562 63.137L48.9493 61.0596L53.9591 63.8105L50.167 65.8875Z" fill="#999999"/>
<path d="M50.167 65.6284L45.3942 63.0066L45.1562 63.1371L50.167 65.8875L53.9591 63.8105L53.7216 63.68L50.167 65.6284Z" fill="white"/>
<path d="M53.9601 63.8105V64.392L50.168 66.47V65.8875L53.9601 63.8105Z" fill="#1A1A1A"/>
<path d="M45.1562 63.137V63.7184L50.167 66.4698V65.8874L45.1562 63.137Z" fill="#4D4D4D"/>
<path d="M122.365 101.981L112.98 107.092L115.251 108.346L115.557 108.928L116.451 109.006L125.837 103.895L122.365 101.981Z" fill="#CCCCCC"/>
<path d="M115.557 108.347L112.086 106.433L121.472 101.322L124.944 103.236L115.557 108.347Z" fill="#999999"/>
<path d="M115.557 108.086L112.324 106.303L112.086 106.433L115.557 108.346L124.944 103.236L124.707 103.105L115.557 108.086Z" fill="white"/>
<path d="M124.945 103.236V103.817L115.559 108.929V108.347L124.945 103.236Z" fill="#1A1A1A"/>
<path d="M112.086 106.434V107.015L115.557 108.929V108.347L112.086 106.434Z" fill="#4D4D4D"/>
<path d="M56.799 84.5906L53.0078 86.6676L74.0547 98.5011L74.3623 99.0826L75.2558 99.1607L79.0479 97.0832L56.799 84.5906Z" fill="#CCCCCC"/>
<path d="M74.3612 98.5012L52.1133 86.0086L55.9049 83.9307L78.1538 96.4237L74.3612 98.5012Z" fill="#999999"/>
<path d="M74.3612 98.241L52.3503 85.8789L52.1133 86.0085L74.3612 98.5011L78.1538 96.4237L77.9164 96.2931L74.3612 98.241Z" fill="white"/>
<path d="M78.152 96.4238V97.0058L74.3594 99.0828V98.5013L78.152 96.4238Z" fill="#1A1A1A"/>
<path d="M52.1133 86.0085V86.59L74.3612 99.0827V98.5012L52.1133 86.0085Z" fill="#4D4D4D"/>
<path d="M64.9581 5.87665L65.5382 5.97929L66.7524 6.19898C66.7159 6.31648 66.6799 6.44049 66.6439 6.56449C66.5646 6.87938 66.5071 7.21611 66.4726 7.57466L65.4535 19.2513L62.8104 49.397C62.5306 52.5092 64.2957 56.1105 66.7505 57.4425L136.163 95.8005C136.202 95.8223 136.248 95.8446 136.295 95.8665L135.494 97.8585L137.022 97.0754C137.956 96.6068 138.652 95.6041 138.905 94.1689C138.937 93.9934 138.956 93.8099 138.974 93.6274L142.619 51.8924L142.628 51.8046C142.829 49.6598 142.051 47.2874 140.739 45.5825C140.152 44.8143 139.455 44.1771 138.688 43.76L69.2831 5.40152C68.2085 4.82329 67.1865 4.7801 66.35 5.16048L66.3509 5.15258L65.306 5.70109L64.9581 5.87665Z" fill="#4D4D4D"/>
<path d="M65.3047 5.70109L65.5373 5.97929L66.6425 6.56449L139.215 46.2039L140.738 45.5825C140.151 44.8143 139.454 44.1771 138.686 43.76L69.2817 5.40152C68.2072 4.82329 67.1852 4.7801 66.3486 5.16048L66.3496 5.15258L65.3047 5.70109Z" fill="#F2F2F2"/>
<path d="M135.613 47.6391L137.915 54.191L142.618 51.8925L142.628 51.8047C142.829 49.6599 142.05 47.2875 140.739 45.5825L135.613 47.6391Z" fill="#999999"/>
<path d="M62.9725 9.3322L61.9544 21.0079L59.3103 51.154C59.031 54.2658 60.7956 57.8676 63.2587 59.2001L114.705 87.1954L132.664 97.558C134.673 98.6486 136.517 97.8794 137.279 95.8665C137.397 95.5665 137.486 95.2377 137.545 94.8782C137.579 94.6947 137.596 94.5197 137.615 94.3288L141.276 52.507C141.556 49.3956 139.783 45.7939 137.329 44.4614L111.936 30.5657L87.9327 16.931H87.9239L67.9234 6.10384C66.2809 5.21861 64.7522 5.56973 63.831 6.82141C63.374 7.45027 63.0732 8.29974 62.9725 9.3322Z" fill="#B3B3B3"/>
<path d="M138.903 49.9337L134.464 95.4158L61.7148 54.5173L66.1537 9.03516L138.903 49.9337Z" fill="#A9D6FF"/>
<path d="M138.901 49.937L138.112 58.0592L65.2852 17.9326L66.1548 9.03198L138.901 49.937Z" fill="#4367C7"/>
<path d="M138.728 51.7185L136.716 72.3835L109.951 81.6385L87.9531 69.2694L138.728 51.7185Z" fill="#668C6D"/>
<path d="M125.732 42.5283L73.1987 60.97L61.7148 54.517L61.7966 53.6954L113.387 35.5825L125.732 42.5283Z" fill="#668C6D"/>
<path d="M93.2908 24.2858L63.6523 34.6917L64.7853 23.023L80.946 17.3489L93.2908 24.2858Z" fill="#668C6D"/>
<path d="M67.2682 9.65778L62.9456 53.9407L134.582 94.2192L134.466 95.416L61.7109 54.5203L66.1498 9.04053L67.2682 9.65778Z" fill="#DCDEDD"/>
<path d="M134.466 95.4163L61.7109 54.5205L62.9456 53.9409L134.582 94.2194L134.466 95.4163Z" fill="#F9F9F9"/>
<path d="M102.066 27.503C102 28.1792 102.376 28.9446 102.921 29.2474C103.083 29.3371 103.255 29.3793 103.422 29.3793C103.521 29.3793 103.625 29.364 103.723 29.3296C104.052 29.2163 104.338 28.914 104.389 28.385C104.455 27.7083 104.08 26.9433 103.535 26.6405C103.372 26.5513 103.205 26.5049 103.034 26.5049C102.931 26.5049 102.821 26.5244 102.719 26.5629H102.711C102.391 26.6837 102.117 26.9865 102.066 27.503Z" fill="#F2F2F2"/>
<path d="M104.138 28.3839C104.129 28.4675 104.113 28.5441 104.089 28.6203C104.089 28.6203 104.089 28.6203 104.088 28.6282C104.014 28.8725 103.861 29.0481 103.653 29.1168C103.583 29.14 103.515 29.1554 103.446 29.1554C103.32 29.1554 103.19 29.1168 103.07 29.0485C102.598 28.7889 102.261 28.0946 102.319 27.5066C102.354 27.1476 102.505 26.8958 102.759 26.7895L102.795 26.7737C102.865 26.7509 102.941 26.7356 103.009 26.7356C103.136 26.7356 103.259 26.7658 103.385 26.8424C103.401 26.8503 103.425 26.8652 103.441 26.881H103.449C103.886 27.162 104.193 27.8182 104.138 28.3839Z" fill="#518E90"/>
<path d="M104.139 28.3841C104.13 28.4677 104.115 28.5443 104.09 28.6205C104.09 28.6205 104.09 28.6205 104.09 28.6284C104.021 28.7282 103.929 28.8035 103.816 28.8425C103.764 28.8578 103.704 28.8727 103.644 28.8727C103.543 28.8727 103.437 28.8425 103.333 28.7812C102.941 28.5675 102.66 27.9953 102.709 27.4988C102.737 27.2086 102.868 26.9949 103.078 26.9034L103.113 26.8955C103.166 26.8732 103.226 26.8579 103.285 26.8579C103.345 26.8579 103.395 26.8653 103.443 26.8807H103.452C103.887 27.1621 104.194 27.8184 104.139 28.3841Z" fill="#333333"/>
<path d="M85.5039 10.9348L92.7051 6.94059C93.1037 6.71952 93.6551 6.75063 94.2629 7.0855L87.0612 11.0797C86.4534 10.7449 85.9025 10.7137 85.5039 10.9348Z" fill="#FFF642"/>
<path d="M118.456 43.4804L111.254 47.4746C111.648 47.2558 111.892 46.7914 111.894 46.1305L119.096 42.1367C119.094 42.7972 118.85 43.2616 118.456 43.4804Z" fill="#FC912D"/>
<path d="M111.947 27.202L119.149 23.2078L119.092 42.1362L111.891 46.13L111.947 27.202Z" fill="#FC912D"/>
<path d="M87.0625 11.0797L94.2642 7.08594L116.967 19.5948L109.765 23.5886L87.0625 11.0797Z" fill="#FFF642"/>
<path d="M102.554 11.6543H91.793V7.95361H95.8372L102.554 11.6543Z" fill="#FCAA2D"/>
<path d="M116.966 19.5939L112.9 21.847H110.297V18.1467H114.336L116.966 19.5939Z" fill="#FCAA2D"/>
<path d="M109.766 23.5887L116.967 19.5945C118.176 20.2605 119.155 21.8786 119.151 23.2074L111.949 27.2016C111.953 25.8728 110.974 24.2552 109.766 23.5887Z" fill="#FFE042"/>
<path d="M109.765 23.5887C110.974 24.2547 111.953 25.8724 111.949 27.2016L111.893 46.1296C111.889 47.4588 110.904 47.9948 109.695 47.3288L86.9918 34.8199C85.7834 34.1539 84.8042 32.5358 84.8086 31.2065L84.8646 12.2786C84.8685 10.9493 85.854 10.4133 87.0628 11.0794L109.765 23.5887Z" fill="#FCAA2D"/>
<path d="M94.082 25.7278C94.082 23.5923 95.6997 22.7618 97.6663 23.9271C99.5074 25.0181 101.002 27.5647 100.982 29.5711C100.97 30.8167 100.4 31.6058 99.5327 31.806V38.4438C99.5327 38.8516 99.231 39.016 98.8582 38.8107L96.2063 37.3496C95.8335 37.1443 95.5313 36.6473 95.5313 36.2396V29.6017C94.6553 28.4336 94.082 26.9971 94.082 25.7278Z" fill="#FF6D40"/>
<path d="M95.8525 23.4072C95.5844 23.7969 95.4311 24.3278 95.4311 24.9831C95.4311 26.2524 96.0044 27.6885 96.8808 28.8566V35.4944C96.8808 35.9022 97.1831 36.3996 97.5559 36.6049L99.5332 37.6949V38.4441C99.5332 38.8519 99.2314 39.0163 98.8587 38.811L96.2068 37.3498C95.834 37.1446 95.5318 36.6476 95.5318 36.2398V29.602C94.6553 28.4339 94.082 26.9978 94.082 25.7285C94.082 24.3101 94.7974 23.4722 95.8525 23.4072Z" fill="#FFF642"/>
<path d="M91.7988 9.73528L94.4521 8.26392L94.4463 10.1802L91.793 11.652L91.7988 9.73528Z" fill="#FFE042"/>
<path d="M94.22 4.65739L96.8733 3.18604C95.3826 4.01275 94.4575 5.76974 94.4502 8.26381L91.7969 9.73517C91.8042 7.24063 92.7298 5.48411 94.22 4.65739Z" fill="#FC912D"/>
<path d="M110.302 19.9301L112.956 18.4592L112.95 20.3755L110.297 21.8469L110.302 19.9301Z" fill="#FC912D"/>
<path d="M92.8711 2.44342L95.5244 0.972064C97.381 -0.0576098 99.9516 0.0845096 102.782 1.64411L100.129 3.11547C97.2983 1.55587 94.7277 1.41329 92.8711 2.44342Z" fill="#FFF642"/>
<path d="M100.129 3.1154L102.782 1.64404C108.41 4.74514 112.975 12.2877 112.957 18.4593L110.304 19.9306C110.322 13.7591 105.757 6.21603 100.129 3.1154Z" fill="#FFE042"/>
<path d="M100.127 3.11549C105.754 6.21613 110.32 13.7592 110.302 19.9307L110.296 21.8475L108.387 20.7955L108.393 18.8792C108.407 13.86 104.698 7.72789 100.121 5.20596C95.5437 2.68402 91.8134 4.7169 91.7978 9.73615L91.792 11.6524L89.8828 10.6005L89.8891 8.68418C89.9076 2.51218 94.5027 0.0167201 100.127 3.11549Z" fill="#FCAA2D"/>
<path d="M64.6588 17.6994L46.8867 14.3674L49.9824 25.3014C49.9824 33.5875 53.2621 43.2777 58.9799 51.8592L67.4907 64.6408L61.0458 68.1914V69.3818L65.5158 67.5956C65.8419 67.4646 66.1626 67.3225 66.4717 67.1697L67.2328 66.7493L74.4111 62.8127L75.1781 62.3924C76.6318 61.5346 77.8908 60.3878 78.9269 58.9894C81.1992 55.9361 82.4294 51.692 82.4294 46.6175V33.9558L64.6588 17.6994Z" fill="#FF6D40"/>
<path d="M74.5115 38.2932L56.7384 22.0376L38.9648 18.708V31.3678C38.9648 39.6549 42.2474 49.3432 47.9623 57.9238L56.7384 71.1006L65.5135 67.5945C71.2284 65.3113 74.511 59.2405 74.511 50.9535V38.2932H74.5115Z" fill="#FFAF40"/>
<path d="M71.5574 39.6684L56.7379 26.1141L41.918 23.3376V33.894C41.918 40.804 44.6555 48.8821 49.4204 56.0369L56.7379 67.0238L64.055 64.1005C68.8204 62.1968 71.5574 57.1348 71.5574 50.2248V39.6684Z" fill="#FF6D40"/>
<path d="M56.0503 54.1158L54.0044 50.7481C53.5454 49.9925 53.5454 49.1778 54.0044 48.9284L67.0052 41.854C67.4641 41.6046 68.2082 42.0147 68.6671 42.7699L70.7136 46.1376C71.1725 46.8928 71.1725 47.7079 70.7136 47.9573L57.7123 55.0312C57.2529 55.2811 56.5087 54.8715 56.0503 54.1158Z" fill="white"/>
<path d="M59.7513 53.9147L57.7048 55.028C57.2459 55.2774 56.5018 54.8677 56.0429 54.1121L49.2504 42.9315C48.7915 42.1759 48.7915 41.3612 49.2504 41.1118L51.2964 39.9985C51.7553 39.7487 52.4994 40.1588 52.9584 40.9144L59.7508 52.095C60.2102 52.8502 60.2102 53.6648 59.7513 53.9147Z" fill="white"/>
<path d="M51.207 55.3973C46.4415 48.2425 43.7045 40.1644 43.7045 33.254V23.672L41.918 23.3372V33.8935C41.918 40.8035 44.6555 48.8816 49.4204 56.0368L56.7379 67.0237L58.4851 66.3257L51.207 55.3973Z" fill="#FFC640"/>
<path d="M38.9648 18.7079L56.7374 22.037L64.6574 17.6991L46.8849 14.3672L38.9648 18.7079Z" fill="#FFF454"/>
<path d="M74.5118 38.2931L82.4318 33.9557L64.6583 17.6992L56.7383 22.0371L74.5118 38.2931Z" fill="#FFC640"/>
<path d="M156.299 78.6611L91.2483 42.8189C90.3294 42.3127 89.488 42.2681 88.8334 42.603L86.8984 43.4989L87.6036 44.2973L87.6275 44.2903C87.5316 44.6605 87.4771 45.0771 87.4771 45.5397V81.6442C87.4771 84.2943 89.1653 87.3731 91.2478 88.5208L156.299 124.363C156.51 124.479 156.716 124.565 156.917 124.634L156.908 125.571L158.657 124.605C159.518 124.2 160.069 123.156 160.069 121.642V85.5376C160.07 82.8866 158.382 79.8082 156.299 78.6611Z" fill="#A9D6FF"/>
<path d="M154.47 125.369L89.4196 89.5273C87.3372 88.3796 85.6484 85.3008 85.6484 82.6512V46.5462C85.6484 43.8961 87.3372 42.6778 89.4196 43.8255L154.47 79.6676C156.553 80.8152 158.241 83.894 158.241 86.5441V122.649C158.241 125.299 156.553 126.517 154.47 125.369Z" fill="#378FE9"/>
<path d="M115.739 85.2558C115.739 93.266 109.809 96.4925 102.495 92.4625C95.18 88.4321 89.25 78.6713 89.25 70.6611C89.25 62.6503 95.18 59.4243 102.495 63.4543C109.809 67.4843 115.739 77.245 115.739 85.2558Z" fill="white"/>
<path d="M100.429 65.7264C100.429 65.7264 94.9136 63.8551 95.7896 74.8945C95.8417 75.5517 96.3288 76.2999 96.9055 76.6176L102.363 79.6244L100.429 65.7264Z" fill="#636363"/>
<path d="M104.429 67.9287C104.429 67.9287 109.945 72.1356 109.069 82.2094C109.017 82.8095 108.529 83.0204 107.953 82.7031L102.496 79.6963L104.429 67.9287Z" fill="#636363"/>
<path d="M107.744 76.703C107.744 80.5797 105.362 82.4092 102.423 80.7901C99.4843 79.171 97.1016 74.7156 97.1016 70.8394C97.1016 66.9627 99.4843 65.1332 102.423 66.7523C105.362 68.3713 107.744 72.8267 107.744 76.703Z" fill="#FAD3AA"/>
<path d="M107.509 74.2469L106.747 73.8275L106.292 72.4769V73.5767L105.246 73.0008L104.858 71.875L104.806 72.7574L103.552 72.0668L102.898 70.8114V71.7069L101.502 70.9377L101.267 68.9109L101.051 70.6888L100.972 70.6456L100.737 69.9475L100.577 70.4273L99.4563 69.8101L99.2432 69.1083L98.9449 69.5282L98.8704 69.4868V67.6759L98.2805 69.1622L97.3359 68.6415C97.3359 67.3007 97.8328 66.3597 98.6353 65.9273C99.4378 65.4907 100.547 65.5576 101.771 66.2325L103.078 66.9523C105.527 68.3016 107.509 71.5647 107.509 74.2469Z" fill="#636363"/>
<path d="M104.06 84.2298L100.668 82.3608V77.2849L104.06 79.1529V84.2298Z" fill="#FAD3AA"/>
<path d="M111.085 93.7212C108.775 94.6227 105.77 94.2679 102.493 92.4621C99.2167 90.6568 96.2126 87.7011 93.9023 84.2535C94.1491 80.6443 97.0044 79.2691 100.483 81.1854L104.506 83.4022C107.989 85.3217 110.838 89.8408 111.085 93.7212Z" fill="#56AA39"/>
<path d="M100.668 81.2881L102.364 85.7486L104.06 83.1575L100.668 81.2881Z" fill="#FAD3AA"/>
<path d="M104.06 83.1575L102.365 85.7487L100.669 81.2891L99.3086 83.0261L102.365 92.3837L105.42 86.3933L104.06 83.1575Z" fill="#A0D859"/>
<path d="M158.241 85.878V91.1062L85.6484 51.1087V45.8805C85.6484 43.601 87.3381 42.6814 89.4196 43.8286L154.47 79.6707C156.552 80.8174 158.241 83.598 158.241 85.878Z" fill="#272262"/>
<path d="M153.244 96.6811L120.655 78.7253C119.927 78.324 119.336 77.2465 119.336 76.3185V75.7542C119.336 74.8267 119.927 74.4003 120.655 74.8021L153.244 92.7575C153.973 93.1593 154.564 94.2372 154.564 95.1643V95.729C154.564 96.6565 153.973 97.0829 153.244 96.6811Z" fill="white"/>
<path d="M153.244 104.012L120.655 86.056C119.927 85.6547 119.336 84.5768 119.336 83.6493V83.085C119.336 82.1575 119.927 81.7311 120.655 82.1324L153.244 100.088C153.973 100.49 154.564 101.568 154.564 102.495V103.059C154.564 103.987 153.973 104.413 153.244 104.012Z" fill="white"/>
<path d="M153.244 111.342L120.655 93.3864C119.927 92.9846 119.336 91.9066 119.336 90.9792V90.4149C119.336 89.4874 119.927 89.061 120.655 89.4627L153.244 107.418C153.973 107.82 154.564 108.897 154.564 109.825V110.389C154.564 111.317 153.973 111.744 153.244 111.342Z" fill="white"/>
<path d="M153.244 118.672L120.655 100.716C119.927 100.314 119.336 99.2369 119.336 98.3094V97.7451C119.336 96.8176 119.927 96.3913 120.655 96.7925L153.244 114.748C153.973 115.15 154.564 116.228 154.564 117.155V117.719C154.564 118.647 153.973 119.073 153.244 118.672Z" fill="white"/>
<path d="M92.5606 50.4787C92.5606 51.676 91.6744 52.1581 90.5808 51.5557C89.4873 50.9533 88.6016 49.494 88.6016 48.2967C88.6016 47.0994 89.4873 46.6168 90.5808 47.2196C91.6744 47.8225 92.5606 49.2808 92.5606 50.4787Z" fill="white"/>
<path d="M97.2129 53.0414C97.2129 54.2387 96.3267 54.7208 95.2337 54.1184C94.1401 53.5161 93.2539 52.0568 93.2539 50.8594C93.2539 49.6621 94.1401 49.1795 95.2337 49.7824C96.3267 50.3848 97.2129 51.8436 97.2129 53.0414Z" fill="white"/>
<path d="M101.861 55.6039C101.861 56.8012 100.975 57.2833 99.8821 56.6809C98.7886 56.0786 97.9023 54.6193 97.9023 53.4219C97.9023 52.2246 98.7886 51.742 99.8821 52.3449C100.975 52.9473 101.861 54.4066 101.861 55.6039Z" fill="white"/>
<path d="M106.514 58.1666C106.514 59.364 105.627 59.8461 104.534 59.2437C103.441 58.6413 102.555 57.182 102.555 55.9847C102.555 54.7873 103.441 54.3048 104.534 54.9076C105.627 55.51 106.514 56.9693 106.514 58.1666Z" fill="white"/>
</svg>
