<svg width="340" height="257" viewBox="0 0 340 257" fill="none" xmlns="http://www.w3.org/2000/svg">
<g opacity="0.6">
<path d="M328.983 163.934C328.983 171.516 328.468 178.976 327.465 186.282C324.921 204.885 319.242 222.493 310.977 238.562C309.001 242.422 306.87 246.189 304.598 249.862C303.314 251.941 301.979 253.99 300.608 256H28.3745C27.0006 253.99 25.6655 251.941 24.3814 249.862C15.7544 235.924 9.16275 220.598 5.02592 204.299C5.02297 204.286 5.01987 204.276 5.01692 204.263C4.46019 202.067 3.94535 199.854 3.47831 197.621C1.1974 186.75 0 175.48 0 163.934C0 146.552 2.71506 129.802 7.74702 114.08C8.7528 110.934 9.85446 107.827 11.0429 104.767C13.707 97.9121 16.8171 91.2802 20.3463 84.9067C48.3409 34.2927 102.399 0 164.491 0C202.774 0 238.001 13.0315 265.95 34.8951C271.356 39.1211 276.493 43.6809 281.325 48.5388C286.62 53.8615 291.553 59.5474 296.082 65.5543C296.247 65.7735 296.411 65.9929 296.573 66.2123C300.234 71.1158 303.622 76.2291 306.721 81.5321C306.727 81.5419 306.733 81.5486 306.733 81.5582C307.134 82.2424 307.529 82.933 307.918 83.6237C308.31 84.321 308.699 85.0182 309.083 85.722C309.277 86.0722 309.466 86.4258 309.654 86.776C309.786 87.0183 309.915 87.2605 310.044 87.5028C310.924 89.1658 311.777 90.845 312.6 92.5406C312.774 92.891 312.941 93.2444 313.109 93.5946C313.27 93.9318 313.429 94.2689 313.588 94.6062C313.782 95.0187 313.974 95.4311 314.162 95.8468C314.315 96.1741 314.462 96.5016 314.608 96.8289C314.803 97.2577 314.994 97.6864 315.183 98.1154C315.33 98.4459 315.476 98.7766 315.62 99.1105C315.809 99.5459 315.994 99.9812 316.177 100.417C316.335 100.793 316.494 101.173 316.65 101.553C317.129 102.705 317.593 103.864 318.042 105.029C318.147 105.301 318.251 105.572 318.356 105.847C318.697 106.741 319.03 107.638 319.353 108.541C319.452 108.813 319.547 109.085 319.643 109.356C320.14 110.758 320.619 112.168 321.077 113.589C321.185 113.92 321.293 114.253 321.398 114.584C321.766 115.749 322.122 116.915 322.463 118.09C323.149 120.437 323.783 122.807 324.364 125.197C324.451 125.557 324.538 125.92 324.622 126.283C325.011 127.923 325.373 129.573 325.708 131.229C325.786 131.612 325.864 131.995 325.939 132.378C325.945 132.405 325.948 132.434 325.954 132.46C326.017 132.778 326.076 133.095 326.139 133.416C326.16 133.534 326.181 133.652 326.205 133.773C326.271 134.133 326.34 134.496 326.403 134.86C326.478 135.266 326.549 135.675 326.618 136.084C326.693 136.51 326.762 136.935 326.834 137.364C326.891 137.721 326.947 138.074 327.004 138.431C327.016 138.503 327.025 138.575 327.04 138.647C327.097 139.02 327.154 139.394 327.208 139.77C327.283 140.277 327.358 140.788 327.426 141.299C327.471 141.613 327.513 141.927 327.555 142.242C327.609 142.654 327.663 143.066 327.714 143.482C327.779 144.003 327.842 144.526 327.902 145.05C327.938 145.345 327.971 145.639 328.004 145.934C328.103 146.857 328.196 147.78 328.282 148.707C328.351 149.463 328.417 150.219 328.477 150.975V151.001C328.51 151.414 328.54 151.83 328.57 152.242C328.69 153.911 328.782 155.584 328.848 157.267C328.866 157.705 328.881 158.141 328.896 158.579C328.953 160.357 328.983 162.14 328.983 163.934Z" fill="#AEDEFF"/>
</g>
<path d="M112.186 222.073L111.576 221.71C110.926 221.323 110.687 220.433 111.043 219.725L113.841 214.167C114.197 213.46 115.016 213.199 115.666 213.586L116.539 214.106C116.666 214.182 116.713 214.356 116.643 214.494C116.573 214.633 116.413 214.684 116.286 214.608L115.414 214.089C115.018 213.853 114.52 214.011 114.303 214.442L111.505 220C111.288 220.431 111.433 220.972 111.829 221.208L112.438 221.571C112.834 221.807 113.332 221.648 113.549 221.218L115.407 217.528C115.477 217.389 115.636 217.338 115.764 217.414C115.891 217.49 115.938 217.664 115.868 217.803L114.011 221.493C113.654 222.2 112.836 222.46 112.186 222.073Z" fill="#AFCDFB"/>
<path opacity="0.6" d="M214.774 191.16H80.7449C77.4499 191.16 74.7787 188.255 74.7787 184.672V62.3209C74.7787 58.7372 77.4498 55.832 80.7449 55.832H214.774C218.069 55.832 220.741 58.7372 220.741 62.3209V184.672C220.741 188.255 218.069 191.16 214.774 191.16Z" fill="white"/>
<path d="M220.741 70.8484H74.7787V60.6762C74.7787 58.0008 76.7728 55.832 79.2327 55.832H216.286C218.746 55.832 220.74 58.0008 220.74 60.6762V70.8484H220.741Z" fill="#699DEE"/>
<path d="M82.3314 65.0449C83.243 65.0449 83.982 64.2412 83.982 63.2497C83.982 62.2582 83.243 61.4544 82.3314 61.4544C81.4198 61.4544 80.6808 62.2582 80.6808 63.2497C80.6808 64.2412 81.4198 65.0449 82.3314 65.0449Z" fill="#DDE7FE"/>
<path d="M89.2608 65.0449C90.1724 65.0449 90.9114 64.2412 90.9114 63.2497C90.9114 62.2582 90.1724 61.4544 89.2608 61.4544C88.3492 61.4544 87.6102 62.2582 87.6102 63.2497C87.6102 64.2412 88.3492 65.0449 89.2608 65.0449Z" fill="#DDE7FE"/>
<path d="M96.1863 65.0449C97.0979 65.0449 97.8369 64.2412 97.8369 63.2497C97.8369 62.2582 97.0979 61.4544 96.1863 61.4544C95.2746 61.4544 94.5356 62.2582 94.5356 63.2497C94.5356 64.2412 95.2746 65.0449 96.1863 65.0449Z" fill="#DDE7FE"/>
<path opacity="0.5" d="M127.722 82.7639H86.3464V127.765H127.722V82.7639Z" fill="#CDE0FB"/>
<path opacity="0.5" d="M171.882 86.1177H138.972C138.108 86.1177 137.408 85.3562 137.408 84.4171C137.408 83.4779 138.108 82.7164 138.972 82.7164H171.882C172.746 82.7164 173.446 83.4779 173.446 84.4171C173.446 85.3562 172.746 86.1177 171.882 86.1177Z" fill="#7C9AF2"/>
<path opacity="0.5" d="M211.238 83.8379H178.327C177.464 83.8379 176.764 83.0764 176.764 82.1373C176.764 81.198 177.464 80.4366 178.327 80.4366H211.238C212.102 80.4366 212.802 81.1981 212.802 82.1373C212.802 83.0764 212.102 83.8379 211.238 83.8379Z" fill="#7C9AF2"/>
<g opacity="0.3">
<path d="M178.399 99.2106H138.423C137.864 99.2106 137.41 98.7171 137.41 98.1084C137.41 97.4997 137.864 97.0062 138.423 97.0062H178.399C178.959 97.0062 179.412 97.4997 179.412 98.1084C179.412 98.7171 178.959 99.2106 178.399 99.2106Z" fill="#BDD1F9"/>
<path d="M193.595 99.2106H183.042C182.483 99.2106 182.029 98.7171 182.029 98.1084C182.029 97.4997 182.483 97.0062 183.042 97.0062H193.595C194.155 97.0062 194.608 97.4997 194.608 98.1084C194.608 98.7171 194.155 99.2106 193.595 99.2106Z" fill="#BDD1F9"/>
<path d="M153.507 106.048H138.423C137.864 106.048 137.41 105.554 137.41 104.945C137.41 104.337 137.864 103.843 138.423 103.843H153.507C154.066 103.843 154.52 104.337 154.52 104.945C154.52 105.554 154.066 106.048 153.507 106.048Z" fill="#BDD1F9"/>
<path d="M177.937 106.048H157.269C156.709 106.048 156.256 105.554 156.256 104.945C156.256 104.337 156.709 103.843 157.269 103.843H177.937C178.497 103.843 178.951 104.337 178.951 104.945C178.951 105.554 178.497 106.048 177.937 106.048Z" fill="#BDD1F9"/>
<path d="M193.595 106.048H183.042C182.483 106.048 182.029 105.554 182.029 104.945C182.029 104.337 182.483 103.843 183.042 103.843H193.595C194.155 103.843 194.608 104.337 194.608 104.945C194.608 105.554 194.155 106.048 193.595 106.048Z" fill="#BDD1F9"/>
<path d="M158.89 111.958H138.423C137.864 111.958 137.41 111.465 137.41 110.856C137.41 110.247 137.864 109.754 138.423 109.754H158.89C159.45 109.754 159.903 110.247 159.903 110.856C159.903 111.465 159.45 111.958 158.89 111.958Z" fill="#BDD1F9"/>
<path d="M197.972 111.958H164.499C163.939 111.958 163.486 111.465 163.486 110.856C163.486 110.247 163.939 109.754 164.499 109.754H197.972C198.531 109.754 198.985 110.247 198.985 110.856C198.985 111.465 198.531 111.958 197.972 111.958Z" fill="#BDD1F9"/>
</g>
<g opacity="0.3">
<path d="M178.399 120.928H138.423C137.864 120.928 137.41 120.435 137.41 119.826C137.41 119.217 137.864 118.724 138.423 118.724H178.399C178.959 118.724 179.412 119.217 179.412 119.826C179.412 120.435 178.959 120.928 178.399 120.928Z" fill="#BDD1F9"/>
<path d="M193.595 120.928H183.042C182.483 120.928 182.029 120.435 182.029 119.826C182.029 119.217 182.483 118.724 183.042 118.724H193.595C194.155 118.724 194.608 119.217 194.608 119.826C194.608 120.435 194.155 120.928 193.595 120.928Z" fill="#BDD1F9"/>
<path d="M153.507 127.765H138.423C137.864 127.765 137.41 127.272 137.41 126.663C137.41 126.054 137.864 125.561 138.423 125.561H153.507C154.066 125.561 154.52 126.054 154.52 126.663C154.52 127.272 154.066 127.765 153.507 127.765Z" fill="#BDD1F9"/>
<path d="M177.937 127.765H157.269C156.709 127.765 156.256 127.272 156.256 126.663C156.256 126.054 156.709 125.561 157.269 125.561H177.937C178.497 125.561 178.951 126.054 178.951 126.663C178.951 127.272 178.497 127.765 177.937 127.765Z" fill="#BDD1F9"/>
</g>
<path d="M104.898 89.4716H109.171L120.716 118.212H115.843L113.182 111.323H100.775L98.0767 118.212H93.354L104.898 89.4716ZM111.495 106.879L106.96 95.4645L102.462 106.879H111.495Z" fill="#BDD1F9"/>
<path d="M109.459 136.829H86.3464V141.682H109.459V136.829Z" fill="#F99746"/>
<path d="M109.459 141.682H86.3464V146.535H109.459V141.682Z" fill="#ED7D2B"/>
<path d="M109.459 146.536H86.3464V151.389H109.459V146.536Z" fill="#474FEA"/>
<path d="M126.487 139.578H113.77C113.238 139.578 112.807 139.108 112.807 138.53C112.807 137.951 113.238 137.482 113.77 137.482H126.487C127.019 137.482 127.451 137.951 127.451 138.53C127.451 139.108 127.019 139.578 126.487 139.578Z" fill="#BDD1F9"/>
<path d="M122.203 143.272H113.77C113.238 143.272 112.807 142.803 112.807 142.224C112.807 141.646 113.238 141.177 113.77 141.177H122.203C122.735 141.177 123.166 141.646 123.166 142.224C123.166 142.803 122.735 143.272 122.203 143.272Z" fill="#BDD1F9"/>
<path d="M109.459 161.921H86.3464V171.838H109.459V161.921Z" fill="#F99746"/>
<path d="M109.459 169.388H86.3464V176.48H109.459V169.388Z" fill="#B5453C"/>
<path d="M86.3464 161.921L94.638 169.497L86.3464 176.481V161.921Z" fill="#474FEA"/>
<path d="M126.487 164.67H113.77C113.238 164.67 112.807 164.2 112.807 163.622C112.807 163.043 113.238 162.574 113.77 162.574H126.487C127.019 162.574 127.451 163.043 127.451 163.622C127.451 164.2 127.019 164.67 126.487 164.67Z" fill="#BDD1F9"/>
<path d="M122.203 168.365H113.77C113.238 168.365 112.807 167.895 112.807 167.317C112.807 166.738 113.238 166.269 113.77 166.269H122.203C122.735 166.269 123.166 166.738 123.166 167.317C123.166 167.895 122.735 168.365 122.203 168.365Z" fill="#BDD1F9"/>
<path d="M252.154 229.334H180.062V199.543H252.394C258.24 199.543 262.98 204.698 262.98 211.057V217.559C262.98 224.062 258.133 229.334 252.154 229.334Z" fill="#FCECDB"/>
<path d="M324.822 211.8V216.282C324.822 218.677 324.269 220.92 323.301 222.847C321.359 226.726 317.746 229.333 313.609 229.333H177.841C176.943 229.333 176.215 228.486 176.215 227.442V226.771C176.215 225.727 176.943 224.879 177.841 224.879H260.604C261.047 224.251 261.437 223.571 261.766 222.847C262.541 221.147 262.979 219.209 262.979 217.152V211.455C262.979 210.407 262.863 209.39 262.644 208.423C262.273 206.783 261.61 205.281 260.725 203.999H177.841C176.943 203.999 176.215 203.152 176.215 202.106V201.437C176.215 200.391 176.943 199.543 177.841 199.543H314.293C319.101 199.543 323.157 203.296 324.416 208.423C324.68 209.496 324.822 210.629 324.822 211.8Z" fill="#699DEE"/>
<path d="M324.416 208.423H262.644C262.273 206.783 261.61 205.281 260.725 203.999H177.841C176.943 203.999 176.215 203.152 176.215 202.106V201.437C176.215 200.391 176.943 199.543 177.841 199.543H314.293C319.101 199.543 323.157 203.296 324.416 208.423Z" fill="#548EE2"/>
<path d="M180.062 214.439L190.115 214.94L180.062 215.241V214.439Z" fill="#F4D2B8"/>
<path d="M180.062 219.112L203.978 219.613L180.062 219.915V219.112Z" fill="#F4D2B8"/>
<path d="M169.524 252.442H240.293V229.27H168.9C163.598 229.27 159.3 233.944 159.3 239.711V241.322C159.3 247.463 163.877 252.442 169.524 252.442Z" fill="#F99746"/>
<path d="M236.884 252.442H317.541V229.27H236.663C231.272 229.27 226.902 234.023 226.902 239.886V241.584C226.902 247.581 231.371 252.442 236.884 252.442Z" fill="#FCECDB"/>
<path d="M221.573 252.441H320.263C321.082 252.441 321.746 251.719 321.746 250.829V250.588C321.746 249.697 321.082 248.975 320.263 248.975H221.573C220.755 248.975 220.091 249.697 220.091 250.588V250.829C220.091 251.719 220.755 252.441 221.573 252.441Z" fill="#F99746"/>
<path d="M221.573 232.735H320.263C321.082 232.735 321.746 232.014 321.746 231.123V230.882C321.746 229.992 321.082 229.27 320.263 229.27H221.573C220.755 229.27 220.091 229.992 220.091 230.882V231.123C220.091 232.014 220.755 232.735 221.573 232.735Z" fill="#F99746"/>
<path d="M317.54 240.856L306.551 241.246L317.54 241.48V240.856Z" fill="#F4D2B8"/>
<path d="M317.539 235.523L291.396 235.913L317.539 236.147V235.523Z" fill="#F4D2B8"/>
<path d="M291.668 235.835C291.668 235.835 292.788 236.831 293.159 238.467C293.225 238.753 293.267 239.06 293.276 239.383C293.338 241.557 293.276 246.478 293.276 246.478L296.583 244.018L299.883 246.478V239.808C299.883 238.547 299.599 237.321 299.074 236.517C298.819 236.128 298.51 235.835 298.16 235.835H291.668V235.835Z" fill="#699DEE"/>
<path d="M291.668 235.835C291.668 235.835 292.788 236.831 293.159 238.467L299.788 238.565C299.788 238.565 299.528 236.221 298.16 235.835H291.668V235.835Z" fill="#568CDB"/>
<path d="M231.519 199.607H161.865V165.562H231.772C237.953 165.562 242.964 171.012 242.964 177.734V187.158C242.964 194.033 237.84 199.607 231.519 199.607Z" fill="#FCECDB"/>
<path d="M243.005 178.772V186.099C242.988 189.228 241.654 191.943 239.694 193.395C238.73 194.107 237.615 194.514 236.43 194.514H159.732C158.833 194.514 158.104 195.461 158.104 196.629V197.493C158.104 198.66 158.833 199.607 159.732 199.607H292.229C296.031 199.607 299.39 197.152 301.42 193.395C302.7 191.027 303.451 188.144 303.451 185.03V179.249C303.451 177.116 303.075 175.096 302.404 173.297C300.7 168.72 297.092 165.563 292.914 165.563H159.732C158.833 165.563 158.104 166.508 158.104 167.675V168.54C158.104 169.707 158.833 170.654 159.732 170.654H236.664C238.503 170.654 240.167 171.671 241.33 173.297C242.359 174.738 242.994 176.657 243.005 178.772Z" fill="#AFCDFB"/>
<path d="M158.104 196.629V197.493C158.104 198.661 158.833 199.608 159.732 199.608H292.229C296.031 199.608 299.39 197.153 301.42 193.395H239.694C238.73 194.107 237.615 194.515 236.43 194.515H159.732C158.833 194.515 158.104 195.462 158.104 196.629Z" fill="#A4C4F4"/>
<path d="M161.867 182.585L171.7 183.157L161.867 183.502V182.585Z" fill="#F4D2B8"/>
<path d="M161.867 174.749L185.259 175.321L161.867 175.666V174.749Z" fill="#F4D2B8"/>
<path d="M185.018 175.208C185.018 175.208 183.475 176.287 182.963 178.062C182.873 178.372 182.815 178.705 182.803 179.054C182.718 181.412 182.803 186.748 182.803 186.748L178.245 184.08L173.699 186.748V179.516C173.699 178.149 174.09 176.819 174.814 175.947C175.165 175.526 175.591 175.208 176.073 175.208H185.018V175.208Z" fill="#F99746"/>
<path d="M185.018 175.208C185.018 175.208 183.474 176.287 182.963 178.062L173.83 178.167C173.83 178.167 174.188 175.627 176.073 175.208H185.018Z" fill="#ED7D2B"/>
<path d="M68.5921 196.594C68.5921 196.594 82.8696 203.36 85.4613 203.237C88.053 203.114 104.023 197.946 104.023 197.946L103.616 200.934C103.616 200.934 91.2917 208.644 86.9831 209.081C82.741 209.512 68.236 204.94 66.8358 203.975C65.4355 203.01 64.5224 197.571 68.5921 196.594Z" fill="#ED985F"/>
<path d="M66.4475 171.705C66.4475 171.705 61.1804 170.617 58.5572 172.701C53.8053 176.475 53.5501 189.487 51.7691 191.425C49.9881 193.364 45.6951 192.537 45.313 202.566C44.9307 212.596 47.0221 213.435 44.5315 217.912C42.0408 222.389 45.5853 226.87 45.5853 226.87C45.5853 226.87 44.1335 224.399 44.7557 222.615C44.7557 222.615 45.3599 226.552 47.6596 227.474C49.9592 228.397 50.2994 229.074 50.6667 230.427C50.6667 230.427 70.2854 219.493 70.3067 211.738C70.328 203.983 74.1673 196.301 72.282 192.94C72.282 192.94 73.1217 194.378 73.2247 195.977C73.2247 195.977 74.3559 193.62 72.3951 191.425C70.4343 189.231 74.6952 184.689 74.0644 179.429C73.6311 175.819 71.3015 171.863 66.4475 171.705Z" fill="#233862"/>
<path d="M70.3279 203.984C69.0739 204.93 67.5016 205.71 65.5278 206.206C58.1289 208.065 55.2935 201.264 54.2288 196.595C55.2377 195.967 56.1871 195.829 56.7354 195.758C57.2701 195.689 57.8326 195.643 58.2984 195.618C59.1292 194.926 60.3672 192.094 60.6409 187.696L60.989 187.797L66.8201 189.533C66.8201 189.533 66.5529 191.549 66.4221 193.455C66.3208 194.946 66.3049 196.371 66.5647 196.719C67.0197 196.827 67.2927 196.897 67.2927 196.897C67.2927 196.897 67.2929 196.899 67.2956 196.903C67.3738 197.042 69.0656 200.068 70.3279 203.984Z" fill="#FFB27D"/>
<path d="M66.8195 189.533C66.8195 189.533 66.5513 191.547 66.4215 193.455C63.1179 193.095 61.5849 189.674 60.9879 187.798L66.8195 189.533Z" fill="#ED985F"/>
<path d="M67.8088 191.425C67.8088 191.425 59.9675 190.955 60.3121 185.648C60.6566 180.341 59.8766 176.707 64.8978 176.783C69.9189 176.859 70.7589 178.959 71.0401 180.76C71.3211 182.562 69.8573 191.411 67.8088 191.425Z" fill="#FFB27D"/>
<path d="M71.0005 177.792C69.8951 176.101 68.9572 176.38 68.4129 176.82C64.3008 173.926 61.2928 177.495 61.2928 177.495C60.5178 181.262 57.8496 183.246 57.8496 183.246C57.8496 183.246 59.2138 184.316 62.5655 183.653C63.5893 183.45 64.5382 182.743 65.3632 181.86C63.8712 184.184 61.943 185.792 61.943 185.792C66.0045 184.122 67.9752 178.299 68.174 177.682C68.6214 178.187 69.4968 179.275 69.7187 180.291C70.02 181.673 71.3198 183.833 72.0714 183.797C72.0713 183.797 72.6582 180.327 71.0005 177.792Z" fill="#233862"/>
<path d="M51.9955 221.322C51.2874 217.385 48.9786 201.655 51.2874 196.594C52.1167 194.775 55.3704 194.611 58.9403 194.771C60.0512 195.551 64.2841 198.498 66.0228 198.13C66.0414 198.126 66.0753 198.118 66.1201 198.105C66.9389 197.883 67.248 197.257 66.565 196.718C66.5635 196.717 68.3332 196.532 70.5289 196.982C71.7691 197.236 75.1141 199.118 75.1141 199.118C75.1141 199.118 73.4296 202.428 70.9456 203.571C71.3679 207.68 70.74 209.493 66.8203 218.985C63.5081 227.008 67.267 234.231 67.267 234.231C67.267 234.231 47.7693 251.281 47.6607 242.6C47.5793 236.064 52.9005 226.354 51.9955 221.322Z" fill="#F9DDBF"/>
<path d="M68.2327 252.772C69.2931 252.641 70.2477 252.01 70.8405 251.045C70.9346 250.892 71.0352 250.727 71.1418 250.551C73.3612 246.897 74.2248 235.706 79.2169 223.784C80.433 220.882 84.7977 220.36 85.9877 217.078C85.9877 217.078 88.9171 206.444 80.3809 206.13C71.8447 205.816 57.5196 235.721 57.2934 238.857C57.0743 241.895 51.6499 254.807 68.2327 252.772Z" fill="#DD6D22"/>
<path d="M102.16 252.526H90.01C90.01 252.526 89.5558 250.419 90.3535 248.985C91.0596 247.716 90.7889 246.993 90.266 245.943C90.8164 246.188 91.5284 246.411 92.3123 246.362C92.9176 246.324 93.5577 246.025 94.1192 245.671C94.6421 246.319 96.8811 249.079 97.5808 249.626C98.3749 250.247 101.915 250.025 102.16 252.526Z" fill="#233862"/>
<path d="M86.2652 209.204C86.9969 215.17 89.8537 233.998 94.8934 243.184C96.5182 246.146 90.7998 247.806 90.7689 247.797C90.002 247.579 88.7242 246.249 88.1354 245.671C84.0438 241.661 75.7382 230.305 75.7382 221.2C75.7382 216.761 75.6665 208.282 78.6345 206.128C80.4625 204.801 85.9747 206.835 86.2652 209.204Z" fill="#ED7D2B"/>
<path d="M60.9885 252.527C60.9885 252.527 61.4388 251.845 62.2239 250.551C63.1583 249.012 64.1922 245.983 65.4467 242.1C66.7646 238.024 68.328 233.009 70.2815 227.791C70.8845 226.18 71.5248 224.55 72.2057 222.922C73.4218 220.02 76.7667 220.421 77.9569 217.14C77.9569 217.14 82.6005 205.765 74.0643 205.451C65.5281 205.138 49.3075 235.879 48.3755 238.857C47.3551 242.116 42.3766 255.65 60.9885 252.527Z" fill="#F99746"/>
<path d="M93.2416 252.526H81.0919C81.0919 252.526 80.6377 250.419 81.4354 248.985C82.1415 247.716 81.8708 246.993 81.3479 245.943C81.8984 246.188 82.6103 246.411 83.3942 246.362C83.9995 246.324 84.6396 246.025 85.2011 245.671C85.724 246.319 87.9631 249.079 88.6627 249.626C89.4566 250.247 92.9971 250.025 93.2416 252.526Z" fill="#2B478B"/>
<path d="M65.4474 242.1C66.7653 238.024 68.3287 233.009 70.2822 227.791C69.772 223.838 68.6714 220.379 66.8208 218.986C66.8208 218.986 62.3309 234.114 65.4474 242.1Z" fill="#ED7D2B"/>
<path d="M79.1734 208.781C79.9051 214.746 80.9354 233.997 85.9751 243.183C87.5999 246.145 81.8816 247.805 81.8507 247.796C81.0836 247.578 79.806 246.248 79.217 245.671C75.1256 241.66 66.8198 230.304 66.8198 221.2C66.8198 216.76 71.6099 208.638 74.5779 206.483C76.4058 205.156 78.8828 206.412 79.1734 208.781Z" fill="#F99746"/>
<path d="M69.2726 188.374C69.2726 188.374 68.5312 188.055 66.4453 188.239C66.4453 188.239 66.5561 189.124 68.0944 189.212C68.9659 189.261 69.2726 188.374 69.2726 188.374Z" fill="white"/>
<path d="M105.544 191.696L103.025 186.753L97.5758 203.29L100.791 207.044L105.544 191.696Z" fill="#163560"/>
<path d="M92.391 194.59L87.3258 210.329L100.79 207.044L105.543 191.695L92.391 194.59Z" fill="#1C468A"/>
<path d="M87.5938 209.535L87.3579 209.086L92.1509 194.192L92.3906 194.59L87.5938 209.535Z" fill="#EFDECE"/>
<path d="M92.1523 194.192L104.918 191.49L105.544 191.695L92.3921 194.59L92.1523 194.192Z" fill="#FCECDB"/>
<path d="M105.547 191.695L102.823 186.992L101.087 192.301L104.92 191.49L105.547 191.695Z" fill="#EFDECE"/>
<path d="M96.2823 196.869C95.8444 196.778 94.9052 196.392 93.9541 196.108C94.2381 195.868 94.554 195.574 94.6421 195.271C94.8118 194.688 94.9249 194.501 94.3593 194.685C93.7937 194.87 91.8148 195.857 91.8148 195.857C91.8148 195.857 91.8189 195.859 91.8199 195.86C90.6954 196.217 89.6595 197.946 89.6595 197.946C89.6595 197.946 75.7389 203.268 74.0641 203.359C71.4732 203.501 54.2286 196.594 54.2286 196.594C50.159 197.571 51.0719 203.009 52.4723 203.975C53.8727 204.94 66.2814 209.849 73.6353 209.942C77.3601 209.989 90.909 200.517 90.909 200.517C90.909 200.517 92.4927 199.73 93.7371 199.976C94.9814 200.222 97.866 199.976 98.4883 198.869C99.1103 197.761 97.0176 197.023 96.2823 196.869Z" fill="#FFB27D"/>
<path d="M63.1146 200.001C63.1146 200.001 61.5723 205.311 56.2754 206.519C56.2754 206.519 47.5283 203.589 51.8835 197.107C51.8836 197.107 56.1898 193.627 63.1146 200.001Z" fill="#F9DDBF"/>
<path d="M105.319 197.268L105.318 197.27C105.321 197.122 105.308 196.977 105.272 196.838C105.272 196.838 104.024 194.691 103.615 194.604C102.371 194.336 102.371 196.119 102.635 197.268C102.819 198.069 103.286 198.838 103.665 199.253L103.665 199.254L103.615 200.933C105.718 199.677 105.319 197.268 105.319 197.268Z" fill="#FFB27D"/>
<path d="M243.503 129.069C243.958 116.832 234.528 111.396 224.885 111.396C215.243 111.396 204.75 114.113 203.841 130.384C203.256 140.852 208.387 147.293 223.16 147.293C228.143 147.293 232.016 146.439 234.981 144.914L242.367 152.052L238.737 142.186C241.952 138.935 243.307 134.349 243.503 129.069Z" fill="#91B5F8"/>
<path d="M240.501 193.632C242.789 198.035 245.692 199.75 245.692 199.75L257.813 199.843C257.813 199.843 238.756 190.273 240.501 193.632Z" fill="#233862"/>
<path d="M249.592 227.631C249.906 228.028 249.943 228.468 249.784 228.936C249.783 228.938 249.782 228.941 249.78 228.943C249.486 229.81 248.524 230.773 247.409 231.733C247.266 231.857 247.139 231.969 247.029 232.073C247 232.1 246.971 232.127 246.943 232.155C246.921 232.176 246.899 232.198 246.878 232.218C245.836 233.248 246.224 233.488 244.352 235.579C242.217 237.961 240.757 237.993 240.344 237.771C239.994 237.582 240.716 236.316 241.515 234.892C241.554 234.824 241.592 234.754 241.632 234.685C241.738 234.495 241.844 234.303 241.95 234.113C242.888 232.399 242.655 231.59 242.452 229.028C242.287 226.946 239.551 217.38 239.551 217.38L243.617 216.65C243.617 216.65 244.791 224.259 246.131 225.44C246.848 226.07 247.654 226.084 248.344 226.551C248.393 226.584 248.441 226.617 248.487 226.651C248.879 226.938 249.278 227.234 249.592 227.631Z" fill="#FFB27D"/>
<path d="M249.591 227.631C249.905 228.027 249.942 228.467 249.783 228.936C249.783 228.938 249.781 228.941 249.779 228.942C249.42 229.808 248.483 230.766 247.404 231.724C247.263 231.849 247.138 231.964 247.028 232.072C246.999 232.099 246.97 232.127 246.942 232.154C246.92 232.175 246.898 232.197 246.877 232.218C245.835 233.247 246.223 233.488 244.351 235.578C242.216 237.96 240.756 237.992 240.343 237.771C239.993 237.581 240.715 236.315 241.514 234.892C241.928 234.73 243.85 233.898 245.312 231.893C246.599 230.132 247.465 227.862 248.343 226.551C248.391 226.583 248.439 226.617 248.486 226.651C248.878 226.938 249.277 227.234 249.591 227.631Z" fill="#233862"/>
<path d="M216.861 224.622C216.601 225.983 214.816 225.742 212.823 225.196C210.829 224.65 211.3 225.285 208.461 224.921C205.622 224.557 204.768 223.398 204.685 222.938C204.609 222.529 206.014 222.396 207.522 222.219C207.711 222.198 207.902 222.173 208.092 222.149C209.794 221.93 211.047 220.747 212.597 219.779C214.066 218.861 216.274 215.096 216.274 215.096L220.169 215.462C220.169 215.462 218.102 218.824 217.301 220.287C216.83 221.147 216.848 222.289 216.9 223.172C216.927 223.652 216.953 224.142 216.861 224.622Z" fill="#FFB27D"/>
<path d="M212.823 225.196C210.829 224.65 211.3 225.284 208.461 224.921C205.622 224.557 204.768 223.398 204.685 222.938C204.609 222.529 206.014 222.396 207.522 222.219L207.535 222.251C207.535 222.251 209.231 223.578 211.596 223.658C213.523 223.723 215.569 223.138 216.9 223.172C216.927 223.652 216.953 224.142 216.861 224.621C216.601 225.983 214.816 225.742 212.823 225.196Z" fill="#233862"/>
<path d="M231.969 197.636L235.543 208.325L240.208 222.282C240.208 222.282 241.498 222.428 242.736 222.05C243.876 221.702 245.188 220.776 245.188 220.776C245.188 220.776 243.965 205.819 241.557 197.22C240.94 195.013 240.244 193.226 239.469 192.217C235.682 187.279 231.969 197.636 231.969 197.636Z" fill="#233862"/>
<path d="M235.784 180.732C238.176 179.913 244.976 181.041 251.804 182.549L253.253 179.992L268.029 178.85C268.029 178.85 272.827 190.642 270.11 198.112C269.711 199.209 268.737 199.666 267.409 199.679C267.408 199.68 267.407 199.681 267.407 199.681C267.407 199.681 258.593 199.848 255.738 199.826C248.394 199.769 240.23 194.215 239.171 193.977C237.437 193.585 236.718 197.357 234.956 201.309C233.195 205.261 218.523 218.744 218.523 218.744C218.523 218.744 216.282 218.751 215.358 218.366C214.365 217.953 214.004 217.422 214.004 217.422C214.004 217.422 230.39 182.579 235.784 180.732Z" fill="#2B478B"/>
<path d="M253.482 157.871C258.72 161.061 269.347 167.672 269.403 167.63C269.403 167.63 273.314 169.268 275.549 167.678C279.274 165.028 281.309 157.835 274.569 151.58C271.207 148.46 268.809 147.688 268.476 142.746C268.295 140.064 264.984 131.194 259.382 131.969C258.914 132.034 258.443 132.079 257.971 132.059C257.318 132.031 256.238 132.126 255.126 132.835C251.946 134.861 245.605 156.592 253.482 157.871Z" fill="#233862"/>
<path d="M257.906 155.223C257.882 155.239 260.487 156.229 262.238 155.401C263.886 154.625 265.149 151.695 265.124 151.694C264.377 151.651 263.562 150.934 262.961 146.268L262.642 146.389L257.279 148.442C257.279 148.442 257.655 150.311 257.894 152.09C258.095 153.584 258.199 155.015 257.906 155.223Z" fill="#FFB27D"/>
<path d="M257.279 148.443C257.279 148.443 257.508 149.754 257.825 151.626C260.901 151.048 262.197 148.194 262.642 146.391L257.279 148.443Z" fill="#ED975D"/>
<path d="M256.473 150.289C256.473 150.289 263.798 149.277 263.148 144.325C262.498 139.373 263.006 135.908 258.302 136.345C253.597 136.782 252.938 138.812 252.786 140.522C252.633 142.232 254.55 150.424 256.473 150.289Z" fill="#FFB27D"/>
<path d="M253.07 137.813C253.07 137.813 257.726 142.24 260.91 142.619C264.094 142.997 265.308 141.894 265.308 141.894C265.308 141.894 263.441 140.183 262.328 137.437C262 136.628 261.3 136.069 260.49 135.987C258.216 135.756 253.904 135.625 253.07 137.813Z" fill="#233862"/>
<path d="M255.999 137.442C255.999 137.442 254.421 139.078 253.92 140.297C253.436 141.473 253.275 144.293 253.647 145.417C253.647 145.417 251.238 140.234 252.637 137.735C254.12 135.086 255.999 137.442 255.999 137.442Z" fill="#233862"/>
<path d="M251.668 166.902C251.785 183.016 251.646 179.648 253.257 181.189C253.645 181.56 254.741 181.788 256.185 181.903C260.725 182.266 268.715 181.513 269.025 180.602C270.093 177.451 269.36 176.464 270.265 171.634C270.36 171.12 270.476 170.564 270.612 169.959C271.363 166.643 272.08 165.518 269.529 160.162C267.215 155.309 264.804 151.367 264.584 151.507C258.372 155.454 257.895 152.093 257.895 152.093C257.895 152.093 251.611 159.043 251.668 166.902Z" fill="#F9DDBF"/>
<path d="M235.544 208.325L240.209 222.282C240.209 222.282 241.499 222.427 242.737 222.05C243.877 221.701 245.189 220.775 245.189 220.775C245.189 220.775 243.966 205.818 241.558 197.219L235.544 208.325Z" fill="#2B478B"/>
<path d="M257.895 152.091C257.895 152.091 251.522 153.216 250.755 156.191C249.988 159.166 245.475 176.657 245.475 176.657C245.475 176.657 248.707 177.314 250.213 175.7C251.718 174.085 255.513 160.654 255.513 160.654L257.895 152.091Z" fill="#F9DDBF"/>
<path d="M256.188 181.904C260.728 182.267 268.718 181.514 269.028 180.603C270.096 177.452 269.363 176.465 270.268 171.635L268.121 164.908C268.121 164.908 268.435 172.383 266.396 174.333C264.359 176.283 258.076 178.063 257.081 179.697C256.6 180.482 256.283 181.27 256.188 181.904Z" fill="#F2CCAA"/>
<path d="M261.409 178.799C261.409 178.799 256.935 177.679 256.209 178.107C255.483 178.534 253.706 180.095 253.481 180.642C253.256 181.188 255.093 180.238 255.69 180.069C256.077 179.959 257.09 180.351 257.591 180.537C259.701 181.32 261 180.935 261 180.935L261.409 178.799Z" fill="#FFB27D"/>
<path d="M264.587 151.503C264.587 151.503 270.601 151.953 272.664 155.129C275.567 159.599 281.261 178.601 277.911 181.103C274.138 183.922 260.82 181.717 260.82 181.717C260.82 181.717 260.391 179.458 261.015 178.372C261.639 177.285 271.682 175.6 272.148 175.1C272.615 174.6 266.425 165.236 266.434 163.725C266.445 162.215 264.587 151.503 264.587 151.503Z" fill="#F9DDBF"/>
<path d="M255.985 179.462C255.985 179.462 255.037 180.773 254.728 180.928C254.42 181.083 254.221 181.042 254.221 181.042L254.862 179.808L255.985 179.462Z" fill="#FFB27D"/>
<path d="M256.211 178.107L253.472 179.528C253.472 179.528 253.587 179.735 253.923 179.721C254.259 179.707 255.11 179.376 255.11 179.376L256.211 178.107Z" fill="#FFB27D"/>
<path d="M255.314 183.054L233.719 182.888L227.337 165.269L248.898 165.434L255.314 183.054Z" fill="#F99746"/>
<path d="M233.473 182.201L261.989 182.42L261.985 183.105L233.722 182.888L233.473 182.201Z" fill="#ED7D2B"/>
<path d="M239.228 174.145C239.07 173.526 239.401 173.028 239.969 173.032C240.537 173.037 241.126 173.542 241.285 174.161C241.444 174.779 241.112 175.278 240.544 175.273C239.977 175.269 239.387 174.764 239.228 174.145Z" fill="white"/>
<path d="M124.072 238.496L124.07 252.682L189.683 252.696L189.685 238.51L124.072 238.496Z" fill="#C65447"/>
<path d="M124.069 252.683L114.426 248.196L108.817 245.586L114.558 242.918L124.073 238.496C124.073 238.496 125.342 241.95 125.361 245.198C125.391 250.297 124.069 252.683 124.069 252.683Z" fill="#FCECDB"/>
<path d="M197.313 243.217L197.312 247.702C197.312 250.461 195.255 252.697 192.718 252.697L189.683 252.696L189.686 238.51L192.987 238.51C195.376 238.511 197.313 240.618 197.313 243.217Z" fill="#FCECDB"/>
<path d="M114.558 242.919C114.797 244.352 115.004 246.549 114.426 248.197L108.817 245.587L114.558 242.919Z" fill="#2B478B"/>
<path d="M138.177 164.631C138.177 164.631 139.353 170.178 142.779 170.178C145.715 170.178 149.743 162.958 149.743 162.958L138.177 164.631Z" fill="#F99746"/>
<path d="M177.512 246.552L175.311 248.198C175.311 248.198 164.725 235.927 162.169 224.163C161.714 222.063 161.529 219.992 161.725 218.026C161.725 218.026 161.57 217.494 161.3 216.552C161.288 216.511 161.276 216.468 161.264 216.426C161.145 216.013 161.003 215.527 160.846 214.976C160.333 213.199 159.627 210.766 158.824 207.997C156.974 201.624 152.743 187.251 150.934 181.273L163.93 176.159C163.93 176.159 165.406 179.82 167.527 189.771C167.854 191.069 168.181 192.506 168.487 194.07C168.833 195.843 169.157 197.781 169.426 199.875C169.882 203.421 170.186 207.412 170.205 211.789C170.212 213.569 170.172 215.416 170.075 217.321C170.004 218.717 170.195 220.579 170.553 222.696C172.19 232.377 177.512 246.552 177.512 246.552Z" fill="#2B478B"/>
<path d="M184.434 252.466H173.927C173.927 252.466 173.534 250.644 174.224 249.403C174.834 248.306 174.601 247.681 174.148 246.773C174.624 246.985 175.24 247.178 175.918 247.136C176.441 247.103 176.995 246.844 177.48 246.538C177.933 247.099 179.869 249.485 180.474 249.958C181.161 250.495 184.222 250.303 184.434 252.466Z" fill="#233862"/>
<path d="M169.426 199.875L161.264 216.426C161.145 216.013 161.003 215.527 160.846 214.976C160.333 213.199 159.627 210.766 158.824 207.997C156.974 201.624 152.743 187.251 150.934 181.273L163.93 176.159C163.93 176.159 165.406 179.82 167.527 189.771C167.854 191.069 168.181 192.506 168.487 194.07C168.834 195.843 169.157 197.781 169.426 199.875Z" fill="#233862"/>
<path d="M150.72 248.889C150.72 248.889 149.993 250.83 150.677 252.466H156.392C156.392 252.466 156.511 250.991 154.437 249.28C152.866 247.984 150.72 248.889 150.72 248.889Z" fill="#233862"/>
<path d="M156.94 122.541C156.944 122.232 157.09 118.895 161.751 118.599C161.751 118.599 159.464 118.957 159.092 120.064C159.092 120.064 160.623 118.668 161.905 119.07C163.186 119.473 163.987 121.877 164.012 122.674C164.037 123.471 163.388 126.059 162.585 126.299C162.281 126.389 161.929 126.376 161.608 126.326C161.831 126.685 162.05 127.081 162.261 127.526C164.214 131.632 162.529 136.47 160.944 136.062C159.927 135.801 159.309 137.718 159.309 137.718L149.529 128.571C149.529 128.571 152.955 120.36 156.94 122.541Z" fill="#2C3A64"/>
<path d="M150.794 150.337C151.879 151.155 153.238 151.83 154.945 152.258C161.343 153.866 163.795 147.985 164.716 143.948C163.844 143.405 163.023 143.285 162.548 143.223C162.086 143.164 161.6 143.125 161.197 143.103C160.479 142.504 159.408 140.055 159.171 136.252L158.87 136.339L153.828 137.84C153.828 137.84 154.059 139.584 154.172 141.232C154.259 142.521 154.273 143.753 154.049 144.055C153.655 144.148 153.419 144.208 153.419 144.208C153.419 144.208 153.419 144.21 153.416 144.214C153.349 144.334 151.886 146.951 150.794 150.337Z" fill="#FFB27D"/>
<path d="M153.826 137.841C153.826 137.841 154.058 139.583 154.17 141.233C157.027 140.922 158.353 137.963 158.869 136.341L153.826 137.841Z" fill="#ED985F"/>
<path d="M153.768 140.458C153.768 140.458 160.346 138.62 159.23 134.182C158.115 129.745 158.212 126.519 153.965 127.505C149.719 128.491 149.332 130.426 149.373 132.006C149.414 133.586 152.029 140.822 153.768 140.458Z" fill="#FFB27D"/>
<path d="M148.944 129.48C149.619 127.843 150.458 127.908 150.988 128.181C154.026 124.972 157.131 127.447 157.131 127.447C158.373 130.499 160.944 131.692 160.944 131.692C160.944 131.692 159.953 132.85 157.007 132.903C156.107 132.919 155.193 132.493 154.356 131.896C155.982 133.593 157.867 134.603 157.867 134.603C154.163 133.932 151.588 129.355 151.324 128.869C151.023 129.378 150.449 130.462 150.419 131.365C150.378 132.592 150.818 134.961 150.175 135.068C150.175 135.068 147.931 131.934 148.944 129.48Z" fill="#2C3A64"/>
<path d="M151.877 143.838C151.877 143.838 162.924 140.921 167.727 145.23L165.327 181.641L143.723 175.964C143.723 175.964 144.33 173.66 148.473 167.534C152.616 161.407 150.814 152.42 151.877 143.838Z" fill="#FFB27D"/>
<path d="M158.316 177.589C158.316 177.589 158.304 177.713 158.281 177.948C158.271 178.049 158.259 178.171 158.245 178.314C158.152 179.258 157.976 181.068 157.749 183.423C157.156 189.598 156.226 199.516 155.592 207.345C155.096 213.465 154.781 218.31 154.951 219.087C155.463 221.428 154.951 249.41 154.951 249.41C153.115 250.368 150.331 249.41 150.331 249.41C150.331 249.41 145.44 224.195 146.125 220.69C146.809 217.185 145.667 214.193 145.667 214.193C141.869 194.958 142.285 184.297 143.039 179.193C143.258 177.709 143.507 176.695 143.689 176.077C143.842 175.552 143.949 175.311 143.949 175.311C152.326 172.86 158.316 177.589 158.316 177.589Z" fill="#2B478B"/>
<path d="M169.216 155.615C168.683 159.995 166.549 165.355 165.787 168.241C165.787 168.241 167.061 178.258 165.845 181.008C165.707 181.322 165.536 181.541 165.326 181.64C160.822 183.774 143.278 181.702 142.537 175.547C142.268 173.31 149.22 165.444 149.625 164.489C149.793 164.094 149.972 162.815 149.157 160.162C148.002 164.036 141.626 162.922 141.626 162.922C142.374 161.529 144.239 151.894 146.32 147.545C147.886 144.275 152.065 143.802 152.065 143.802C152.065 143.802 153.804 146.802 158.01 146.376C162.217 145.951 162.986 143.15 162.986 143.15C162.986 143.15 166.716 143.69 167.866 144.699C168.065 144.873 169.915 149.876 169.216 155.615Z" fill="#F99746"/>
<path d="M165.787 168.241C165.787 168.241 167.061 178.258 165.845 181.009C162.563 179.217 159.977 174.37 160.574 168.971C161.015 164.979 161.671 164.069 163.635 161.785C165.077 160.107 168.412 160.012 168.151 160.811C167.373 163.188 166.19 166.717 165.787 168.241Z" fill="#ED7D2B"/>
<path d="M152.089 156.396L159.611 169.522H146.812L139.645 156.68L152.089 156.396Z" fill="#1C468A"/>
<path d="M159.217 168.863L159.347 168.405L152.229 155.984L152.086 156.397L159.217 168.863Z" fill="#EFDECE"/>
<path d="M152.232 155.984L140.174 156.357L139.645 156.681L152.089 156.397L152.232 155.984Z" fill="#FCECDB"/>
<path d="M139.644 156.68L132.88 152.698L140.765 166.164L146.811 169.521L139.644 156.68Z" fill="#163560"/>
<path d="M175.436 165.877C174.712 166.237 172.852 168.619 172.188 168.861C169.204 169.947 156.502 167.057 156.502 167.057L156.895 164.638C156.895 164.638 169.362 164.998 170.732 164.599C170.99 164.523 172.338 162.232 172.856 161.902L175.436 165.877Z" fill="#FFB27D"/>
<path d="M156.898 164.637C156.898 164.637 155.395 163.307 154.379 163.607C153.363 163.908 151.868 165.306 151.313 165.637C150.758 165.968 149.251 167.151 150.015 167.866C150.779 168.582 153.158 167.968 154.101 167.419C155.043 166.871 156.505 167.058 156.505 167.058L156.898 164.637Z" fill="#FFB27D"/>
<path d="M154.667 163.564C154.667 163.564 152.84 163.327 152.341 163.338C151.842 163.349 151.977 163.468 152.253 163.889C152.528 164.31 153.48 164.471 153.523 164.619C153.567 164.766 154.667 163.564 154.667 163.564Z" fill="#FFB27D"/>
<path d="M162.985 143.15C162.985 143.15 168.403 143.85 169.895 146.376C171.781 149.572 176.233 162.297 176.089 165.504C176.089 165.504 172.835 171.528 161.674 170.564C161.674 170.564 160.513 166.103 162.86 164.631C162.86 164.631 168.593 163.522 169.253 162.889L164.579 153.651L162.985 143.15Z" fill="#F99746"/>
<path d="M141.375 161.477C141.207 160.735 139.719 161.199 139.217 161.626C139.095 161.73 138.964 161.906 138.836 162.114C138.82 161.989 138.807 161.87 138.799 161.778C138.771 161.429 138.397 160.804 138.305 161.272C138.212 161.74 138.059 163.705 138.059 163.705C138.041 165.288 138.977 165.941 139.578 165.426C140.179 164.911 141.543 162.22 141.375 161.477Z" fill="#FFB27D"/>
<g opacity="0.7">
<path d="M237.41 67.0913C237.41 68.052 237.726 68.9238 238.239 69.5776H283.995L284.416 69.2489C284.839 68.919 285.213 68.5005 285.476 67.9897C285.651 67.6515 285.771 67.3097 285.845 66.9571C286.32 64.7085 284.984 62.4106 283.025 62.2882C282.161 62.2343 281.373 62.6037 280.787 63.2309C280.792 63.1266 280.8 63.0222 280.8 62.9155C280.8 59.8104 278.67 57.2944 276.041 57.2944C273.735 57.2944 271.811 59.2325 271.375 61.8062C271.314 62.1648 271.282 62.5354 271.282 62.9156C271.282 63.0944 271.291 63.2707 271.305 63.4446H271.282C270.392 63.4446 269.592 63.8884 269.026 64.5996L269.024 64.602C269 63.9855 268.847 63.4087 268.596 62.9098C268.06 61.8387 267.074 61.1216 265.944 61.1216C264.63 61.1216 263.511 62.093 263.066 63.4591C262.501 62.7383 261.696 62.2826 260.799 62.2826C260.053 62.2826 259.37 62.5956 258.837 63.1149C258.578 60.5519 256.736 58.5634 254.496 58.5634C253.767 58.5634 253.08 58.7782 252.474 59.1512C251.384 56.2644 248.836 54.3131 245.934 54.6142C242.233 54.9981 239.53 59.0805 240.076 63.422C240.078 63.4411 240.08 63.4605 240.083 63.4784C238.907 63.6644 237.94 64.6333 237.572 65.9309C237.467 66.295 237.41 66.6835 237.41 67.0913Z" fill="white"/>
</g>
<path d="M247.214 88.2294C247.214 88.9033 247.435 89.5149 247.795 89.9733H279.892L280.188 89.7429C280.484 89.5116 280.747 89.2179 280.932 88.8596C281.054 88.6224 281.138 88.3825 281.19 88.1351C281.524 86.5577 280.586 84.9459 279.212 84.86C278.606 84.8223 278.053 85.0813 277.642 85.5214C277.646 85.4481 277.651 85.3748 277.651 85.3C277.651 83.122 276.157 81.3569 274.313 81.3569C272.695 81.3569 271.346 82.7164 271.039 84.5218C270.997 84.7733 270.975 85.0334 270.975 85.3C270.975 85.4253 270.981 85.5489 270.991 85.671H270.975C270.35 85.671 269.789 85.9822 269.392 86.4812L269.39 86.4828C269.374 86.0503 269.267 85.6458 269.09 85.2957C268.714 84.5444 268.023 84.0413 267.23 84.0413C266.308 84.0413 265.523 84.7228 265.211 85.681C264.815 85.1753 264.25 84.8557 263.621 84.8557C263.098 84.8557 262.618 85.0751 262.244 85.4395C262.063 83.6416 260.77 82.2467 259.2 82.2467C258.688 82.2467 258.206 82.3974 257.781 82.659C257.016 80.634 255.229 79.2651 253.193 79.4764C250.597 79.7457 248.701 82.6094 249.084 85.6549C249.085 85.6684 249.087 85.6818 249.089 85.6944C248.264 85.8249 247.586 86.5047 247.327 87.4149C247.254 87.6708 247.214 87.9433 247.214 88.2294Z" fill="white"/>
<path d="M84 34.7745C84 35.4484 84.2215 36.0599 84.581 36.5184H116.679L116.974 36.2879C117.27 36.0566 117.533 35.7629 117.718 35.4046C117.84 35.1674 117.924 34.9275 117.976 34.6802C118.31 33.1028 117.373 31.4909 115.998 31.4051C115.392 31.3673 114.839 31.6264 114.428 32.0664C114.432 31.9931 114.437 31.9199 114.437 31.8451C114.437 29.667 112.943 27.9019 111.099 27.9019C109.481 27.9019 108.132 29.2615 107.826 31.0669C107.783 31.3184 107.761 31.5785 107.761 31.8451C107.761 31.9704 107.767 32.094 107.777 32.216H107.761C107.137 32.216 106.575 32.5273 106.178 33.0262L106.176 33.0278C106.16 32.5954 106.053 32.1908 105.877 31.8408C105.5 31.0895 104.809 30.5864 104.016 30.5864C103.095 30.5864 102.309 31.2679 101.997 32.226C101.601 31.7203 101.036 31.4008 100.407 31.4008C99.884 31.4008 99.4042 31.6202 99.0302 31.9845C98.8492 30.1867 97.5566 28.7918 95.9859 28.7918C95.4737 28.7918 94.9919 28.9424 94.5668 29.2041C93.8023 27.179 92.015 25.8102 89.9795 26.0215C87.3831 26.2907 85.4873 29.1544 85.8698 32.2C85.8713 32.2134 85.8728 32.2269 85.8749 32.2394C85.0499 32.3699 84.3718 33.0497 84.1136 33.9599C84.0396 34.2159 84 34.4884 84 34.7745Z" fill="white"/>
<path d="M297.51 244.402C297.51 247.467 296.659 250.292 295.21 252.582H276.112C274.662 250.292 273.812 247.467 273.812 244.402C273.812 244.216 273.812 244.031 273.83 243.856C274.064 236.472 279.273 230.583 285.661 230.583C292.049 230.583 297.258 236.472 297.492 243.856C297.51 244.031 297.51 244.216 297.51 244.402Z" fill="#599E85"/>
<path d="M288.875 228.342C292.717 228.342 295.832 224.709 295.832 220.228C295.832 215.747 292.717 212.115 288.875 212.115C285.032 212.115 281.918 215.747 281.918 220.228C281.918 224.709 285.032 228.342 288.875 228.342Z" fill="#599E85"/>
<path d="M300.446 213.971C302.587 213.971 304.322 211.947 304.322 209.45C304.322 206.953 302.587 204.929 300.446 204.929C298.304 204.929 296.569 206.953 296.569 209.45C296.569 211.947 298.304 213.971 300.446 213.971Z" fill="#599E85"/>
<path d="M286.22 236.152V252.582H285.315V236.152C285.315 235.861 285.518 235.63 285.767 235.63C286.016 235.63 286.22 235.862 286.22 236.152Z" fill="white"/>
<path d="M289.759 242.084L286.22 245.293L285.315 246.111V244.776L286.22 243.953L289.202 241.25C289.401 241.071 289.682 241.113 289.836 241.34C289.99 241.572 289.953 241.905 289.759 242.084Z" fill="white"/>
<path d="M330.289 240.789C330.289 243.051 329.983 245.232 329.427 247.276C328.773 249.644 327.779 251.833 326.5 253.763H297.575C296.295 251.833 295.301 249.644 294.647 247.276C294.091 245.232 293.785 243.051 293.785 240.789C293.785 229.031 301.955 219.503 312.037 219.503C320.499 219.503 327.619 226.217 329.677 235.331C330.081 237.075 330.289 238.899 330.289 240.789Z" fill="#9DC89E"/>
<path d="M312.733 228.52V253.763H311.342V228.52C311.342 228.074 311.655 227.717 312.037 227.717C312.42 227.717 312.733 228.074 312.733 228.52Z" fill="white"/>
<path d="M318.17 237.634L312.733 242.564L311.342 243.821V241.77L312.733 240.505L317.315 236.353C317.621 236.077 318.052 236.142 318.288 236.491C318.525 236.848 318.469 237.358 318.17 237.634Z" fill="white"/>
<path d="M312.733 234.318V236.377L311.342 235.12L308.672 232.696C308.373 232.42 308.317 231.909 308.554 231.552C308.79 231.204 309.221 231.139 309.527 231.415L311.342 233.061L312.733 234.318Z" fill="white"/>
<path d="M312.733 247.024V249.084L311.342 247.819L305.585 242.597C305.279 242.321 305.223 241.818 305.46 241.462C305.696 241.105 306.134 241.04 306.433 241.316L311.342 245.767L312.733 247.024Z" fill="white"/>
<path d="M68.0655 242.453C68.0655 244.298 67.816 246.077 67.3623 247.744C66.8292 249.675 66.0181 251.461 64.9745 253.036H41.3804C40.3369 251.461 39.5258 249.675 38.9928 247.744C38.539 246.077 38.2894 244.298 38.2894 242.453C38.2894 232.862 44.9536 225.09 53.1775 225.09C60.0798 225.09 65.8875 230.566 67.5664 238.001C67.8954 239.423 68.0655 240.911 68.0655 242.453Z" fill="#9DC89E"/>
<path d="M53.7448 236.127V253.036H52.6105V236.127C52.6105 235.763 52.8657 235.472 53.1775 235.472C53.4895 235.472 53.7448 235.763 53.7448 236.127Z" fill="white"/>
<path d="M53.7447 247.539V249.219L52.6104 248.187L47.9144 243.928C47.6649 243.703 47.6194 243.293 47.8123 243.002C48.0052 242.711 48.3625 242.658 48.6064 242.883L52.6106 246.514L53.7447 247.539Z" fill="white"/>
<path d="M46.6055 224.165C49.8367 224.165 52.4561 221.11 52.4561 217.342C52.4561 213.574 49.8367 210.519 46.6055 210.519C43.3744 210.519 40.755 213.574 40.755 217.342C40.755 221.11 43.3744 224.165 46.6055 224.165Z" fill="#9DC89E"/>
<path d="M37.2112 210.749C39.1304 210.749 40.6862 208.934 40.6862 206.696C40.6862 204.458 39.1304 202.644 37.2112 202.644C35.292 202.644 33.7362 204.458 33.7362 206.696C33.7362 208.934 35.292 210.749 37.2112 210.749Z" fill="#9DC89E"/>
<path d="M334.67 254.513C334.67 255.063 334.357 255.563 333.856 255.928C333.356 256.288 332.66 256.513 331.889 256.513H8.7992C7.26263 256.513 6.01794 255.618 6.01794 254.513C6.01794 253.963 6.33081 253.463 6.83138 253.098C7.33903 252.738 8.03424 252.513 8.79905 252.513H331.889C333.425 252.513 334.67 253.408 334.67 254.513Z" fill="#599E85"/>
<g opacity="0.8">
<path d="M27.293 200.908L23.5364 196.026H25.9288L22.285 191.29H25.0178L20.7477 185.741L16.4775 191.29H19.2104L15.5665 196.026H17.9589L14.2023 200.908H19.447V202.871H22.0484V200.908H27.293Z" fill="#99DFFF"/>
</g>
<g opacity="0.8">
<path d="M126.256 227.164C125.896 227.164 125.535 227.128 125.182 227.056L125.326 226.09C125.941 226.214 126.585 226.214 127.196 226.087L127.343 227.054C126.987 227.127 126.621 227.164 126.256 227.164ZM123.15 226.197C122.52 225.773 121.962 225.228 121.493 224.579L122.137 223.947C122.543 224.509 123.025 224.98 123.57 225.347L123.15 226.197ZM129.373 226.19L128.951 225.341C129.496 224.973 129.977 224.501 130.382 223.938L131.027 224.569C130.559 225.22 130.002 225.765 129.373 226.19ZM120.409 222.399C120.159 221.606 120.032 220.771 120.031 219.918L120.872 219.916C120.873 220.654 120.983 221.376 121.198 222.062L120.409 222.399ZM132.108 222.386L131.318 222.051C131.532 221.364 131.641 220.642 131.641 219.904L132.241 219.884L132.482 219.894C132.482 220.756 132.356 221.592 132.108 222.386ZM121.191 217.769L120.4 217.434C120.647 216.638 121.01 215.903 121.478 215.249L122.123 215.879C121.719 216.444 121.405 217.08 121.191 217.769ZM131.31 217.733C131.093 217.045 130.777 216.412 130.369 215.851L131.012 215.217C131.483 215.866 131.849 216.599 132.1 217.393L131.31 217.733ZM123.552 214.472L123.129 213.624C123.758 213.197 124.441 212.904 125.158 212.755L125.306 213.721C124.686 213.85 124.096 214.103 123.552 214.472ZM128.933 214.454C128.387 214.088 127.795 213.839 127.176 213.715L127.318 212.748C128.036 212.892 128.72 213.179 129.352 213.603L128.933 214.454Z" fill="#99DFFF"/>
</g>
<g opacity="0.8">
<path d="M314.921 165.093C314.339 165.093 313.767 164.988 313.218 164.781L313.449 163.952C314.398 164.31 315.452 164.31 316.403 163.949L316.634 164.777C316.083 164.987 315.506 165.093 314.921 165.093ZM310.454 162.444C309.762 161.339 309.395 160.03 309.393 158.658L310.14 158.656C310.142 159.843 310.459 160.975 311.057 161.93L310.454 162.444ZM319.395 162.434L318.791 161.921C319.388 160.965 319.703 159.832 319.703 158.645L320.45 158.621V158.645C320.45 160.017 320.085 161.327 319.395 162.434ZM311.046 155.378L310.44 154.867C311.121 153.771 312.1 152.936 313.198 152.517L313.43 153.345C312.482 153.708 311.635 154.43 311.046 155.378ZM318.78 155.351C318.186 154.407 317.335 153.69 316.385 153.334L316.613 152.505C317.713 152.917 318.696 153.744 319.382 154.836L318.78 155.351Z" fill="#99DFFF"/>
</g>
</svg>
