<svg width="30" height="30" viewBox="0 0 30 30" fill="none" xmlns="http://www.w3.org/2000/svg">
<path d="M14 0C17.713 0 21.274 1.475 23.8995 4.10051C26.525 6.72601 28 10.287 28 14C28 17.713 26.525 21.274 23.8995 23.8995C21.274 26.525 17.713 28 14 28C10.287 28 6.72601 26.525 4.10051 23.8995C1.475 21.274 0 17.713 0 14C0 10.287 1.475 6.72601 4.10051 4.10051C6.72601 1.475 10.287 0 14 0V0ZM7.875 13.125C7.64294 13.125 7.42038 13.2172 7.25628 13.3813C7.09219 13.5454 7 13.7679 7 14C7 14.2321 7.09219 14.4546 7.25628 14.6187C7.42038 14.7828 7.64294 14.875 7.875 14.875H18.0128L14.2555 18.6305C14.1741 18.7119 14.1096 18.8084 14.0656 18.9147C14.0216 19.021 13.9989 19.1349 13.9989 19.25C13.9989 19.3651 14.0216 19.479 14.0656 19.5853C14.1096 19.6916 14.1741 19.7881 14.2555 19.8695C14.3369 19.9509 14.4334 20.0154 14.5397 20.0594C14.646 20.1034 14.7599 20.1261 14.875 20.1261C14.9901 20.1261 15.104 20.1034 15.2103 20.0594C15.3166 20.0154 15.4131 19.9509 15.4945 19.8695L20.7445 14.6195C20.826 14.5382 20.8906 14.4417 20.9347 14.3354C20.9789 14.2291 21.0016 14.1151 21.0016 14C21.0016 13.8849 20.9789 13.7709 20.9347 13.6646C20.8906 13.5583 20.826 13.4618 20.7445 13.3805L15.4945 8.1305C15.4131 8.04915 15.3166 7.98461 15.2103 7.94058C15.104 7.89656 14.9901 7.87389 14.875 7.87389C14.7599 7.87389 14.646 7.89656 14.5397 7.94058C14.4334 7.98461 14.3369 8.04915 14.2555 8.1305C14.1741 8.21185 14.1096 8.30843 14.0656 8.41473C14.0216 8.52102 13.9989 8.63495 13.9989 8.75C13.9989 8.86505 14.0216 8.97898 14.0656 9.08527C14.1096 9.19157 14.1741 9.28815 14.2555 9.3695L18.0128 13.125H7.875Z" fill="#204ECF"/>
</svg>
