<svg width="329" height="256" viewBox="0 0 329 256" fill="none" xmlns="http://www.w3.org/2000/svg">
<g opacity="0.6">
<path d="M328.983 163.934C328.983 171.516 328.468 178.976 327.465 186.282C324.921 204.885 319.242 222.493 310.977 238.562C309.001 242.422 306.87 246.189 304.598 249.862C303.314 251.941 301.979 253.99 300.608 256H28.3745C27.0006 253.99 25.6655 251.941 24.3814 249.862C15.7544 235.924 9.16275 220.598 5.02592 204.299C5.02297 204.286 5.01987 204.276 5.01692 204.263C4.46019 202.067 3.94535 199.854 3.47831 197.621C1.1974 186.75 0 175.48 0 163.934C0 146.552 2.71506 129.802 7.74702 114.08C8.7528 110.934 9.85446 107.827 11.0429 104.767C13.707 97.9121 16.8171 91.2802 20.3463 84.9067C48.3409 34.2927 102.399 0 164.491 0C202.774 0 238.001 13.0315 265.95 34.8951C271.356 39.1211 276.493 43.6809 281.325 48.5388C286.62 53.8615 291.553 59.5474 296.082 65.5543C296.247 65.7735 296.411 65.9929 296.573 66.2123C300.234 71.1158 303.622 76.2291 306.721 81.5321C306.727 81.5419 306.733 81.5486 306.733 81.5582C307.134 82.2424 307.529 82.933 307.918 83.6237C308.31 84.321 308.699 85.0182 309.083 85.722C309.277 86.0722 309.466 86.4258 309.654 86.776C309.786 87.0183 309.915 87.2605 310.044 87.5028C310.923 89.1658 311.777 90.845 312.6 92.5406C312.774 92.891 312.941 93.2444 313.109 93.5946C313.27 93.9318 313.429 94.2689 313.588 94.6062C313.782 95.0187 313.974 95.431 314.162 95.8468C314.315 96.1741 314.462 96.5016 314.608 96.8289C314.803 97.2577 314.994 97.6864 315.183 98.1154C315.33 98.4459 315.476 98.7766 315.62 99.1105C315.809 99.5459 315.994 99.9812 316.177 100.417C316.335 100.793 316.494 101.173 316.65 101.553C317.129 102.705 317.593 103.864 318.042 105.029C318.147 105.301 318.251 105.572 318.356 105.847C318.697 106.741 319.03 107.638 319.353 108.541C319.452 108.813 319.547 109.085 319.643 109.356C320.14 110.758 320.619 112.168 321.077 113.589C321.185 113.92 321.293 114.253 321.398 114.584C321.766 115.749 322.122 116.915 322.463 118.09C323.149 120.437 323.783 122.807 324.364 125.197C324.451 125.557 324.538 125.92 324.622 126.283C325.011 127.923 325.373 129.573 325.708 131.229C325.786 131.612 325.864 131.995 325.939 132.378C325.945 132.405 325.948 132.434 325.954 132.46C326.017 132.778 326.076 133.095 326.139 133.416C326.16 133.534 326.181 133.652 326.205 133.773C326.271 134.133 326.34 134.497 326.403 134.86C326.478 135.266 326.549 135.675 326.618 136.084C326.693 136.51 326.762 136.935 326.834 137.364C326.891 137.721 326.947 138.074 327.004 138.431C327.016 138.503 327.025 138.575 327.04 138.647C327.097 139.02 327.154 139.394 327.208 139.77C327.283 140.277 327.358 140.788 327.426 141.299C327.471 141.613 327.513 141.927 327.555 142.242C327.609 142.654 327.663 143.066 327.714 143.482C327.779 144.003 327.842 144.526 327.902 145.05C327.938 145.345 327.971 145.639 328.004 145.934C328.103 146.857 328.196 147.78 328.282 148.707C328.351 149.463 328.417 150.219 328.477 150.975V151.001C328.51 151.414 328.54 151.83 328.57 152.242C328.69 153.911 328.782 155.584 328.848 157.267C328.866 157.705 328.881 158.141 328.896 158.579C328.952 160.357 328.983 162.14 328.983 163.934Z" fill="#AEDEFF"/>
</g>
<g opacity="0.5">
<path d="M252.922 74.2518L250.627 72.4305C250.437 72.2764 250.329 71.9954 250.347 71.7027C250.37 71.3292 250.382 70.9519 250.382 70.5705C250.382 69.862 250.344 69.169 250.262 68.495C250.224 68.1793 250.332 67.8673 250.54 67.7057L252.936 65.7996C253.194 65.5994 253.29 65.1682 253.156 64.81L252.027 61.7834C251.899 61.4407 251.598 61.2828 251.326 61.4098L248.903 62.5689C248.669 62.6883 248.403 62.5844 248.245 62.3147C247.579 61.1787 246.775 60.1854 245.866 59.3729C245.647 59.1765 245.556 58.7991 245.647 58.4719L246.184 56.5312C246.284 56.1615 246.161 55.7455 245.892 55.5685L243.609 54.0976C243.563 54.0667 243.516 54.0437 243.466 54.0322C243.232 53.9667 242.984 54.1054 242.858 54.3864L241.823 56.6428L241.572 57.1935C241.101 57.1049 240.616 57.0587 240.128 57.0587C239.47 57.0587 238.824 57.1396 238.205 57.2935C237.968 57.3512 237.728 57.2166 237.605 56.9431L236.442 54.3979C236.281 54.0513 235.948 53.9204 235.673 54.1014L233.917 55.2374L233.414 55.5648C233.139 55.7419 233.008 56.1655 233.113 56.5428L233.847 59.2114C233.934 59.5194 233.864 59.866 233.671 60.0663C233.101 60.6785 232.581 61.3678 232.125 62.1224C232.081 62.1841 232.046 62.2456 232.008 62.3112C231.996 62.3344 231.982 62.3536 231.967 62.3729C231.807 62.6001 231.558 62.6731 231.336 62.5654L228.942 61.4217C228.916 61.4063 228.887 61.3986 228.86 61.3908C228.603 61.3215 228.334 61.491 228.214 61.8067L227.098 64.8025C226.963 65.1644 227.06 65.5995 227.323 65.8113L229.717 67.7096C229.921 67.8675 230.027 68.1756 229.988 68.4836C229.91 69.1613 229.869 69.8583 229.869 70.5707C229.869 70.9481 229.88 71.3217 229.904 71.6912C229.921 71.9914 229.81 72.2804 229.614 72.4343L227.311 74.2673C227.057 74.4674 226.96 74.8949 227.092 75.2491L228.211 78.2411C228.346 78.6031 228.664 78.7764 228.957 78.6377L230.874 77.7213C231.131 77.5982 231.415 77.7213 231.567 78.0178C232.154 79.1922 232.879 80.2358 233.709 81.1175C233.908 81.3216 233.984 81.6759 233.896 81.9917L233.113 84.8335C233.008 85.2147 233.139 85.6383 233.414 85.8192L235.679 87.2863C235.951 87.4634 236.281 87.3325 236.433 86.9936L236.495 86.8627L237.696 84.2404C237.825 83.9593 238.067 83.8169 238.313 83.8747H238.316C238.903 84.0133 239.508 84.0863 240.128 84.0863C240.458 84.0863 240.783 84.0633 241.107 84.0246C241.332 83.9939 241.548 84.1363 241.665 84.3905L242.846 86.9743C243.007 87.3286 243.349 87.4594 243.627 87.2786L245.889 85.8114C245.953 85.7692 246.009 85.7113 246.056 85.6498C246.205 85.4418 246.26 85.13 246.184 84.8488L245.594 82.7193C245.524 82.4575 245.565 82.1648 245.696 81.957C245.731 81.903 245.772 81.853 245.819 81.8106C246.959 80.8095 247.932 79.5195 248.689 78.0139C248.815 77.7559 249.049 77.6326 249.274 77.6827C249.306 77.6904 249.338 77.7019 249.37 77.7174L251.308 78.6453C251.589 78.78 251.902 78.6144 252.036 78.2602L252.062 78.1908L253.153 75.272C253.287 74.9027 253.188 74.4636 252.922 74.2518ZM234.808 68.4951C234.919 67.9753 235.071 67.4478 235.27 66.9201C235.65 65.9151 236.588 64.6714 237.354 64.1747C237.436 64.1207 237.518 64.0707 237.6 64.0206C242.61 61.0556 247.441 67.5363 245.012 74.14C244.694 75.0025 243.989 76.0153 243.302 76.643C243.142 76.7854 242.984 76.9125 242.835 77.0049C242.136 77.4515 241.441 77.7135 240.762 77.8134C236.898 78.3797 233.718 73.7013 234.808 68.4951Z" fill="#AFCDFB"/>
</g>
<path opacity="0.6" d="M247.75 228.485C245.923 229.398 233.819 231.072 234.318 233.092C234.817 235.111 243.276 237.148 247.661 234.579C247.661 234.579 244.102 251.695 237.437 251.895C230.77 252.093 228.248 247.035 224.131 247.257C220.012 247.477 217.16 249.389 219.33 250.519C221.5 251.649 228.319 249.601 231.946 252.779C232.479 253.245 232.995 253.684 233.469 254.099C233.755 254.35 234.025 254.593 234.275 254.83H210.026C210.027 254.571 210.025 254.327 210.021 254.099C209.999 252.755 209.913 251.985 209.913 251.985C209.913 251.985 197.363 245.133 201.799 232.492C201.799 232.492 205.545 224.571 210.086 221.977C210.086 221.977 209.151 239.944 211.7 239.966C214.249 239.989 211.646 219.847 211.646 219.847C211.646 219.847 223.34 210.06 228.262 209.923C228.262 209.923 222.11 228.282 224.584 227.478C227.058 226.673 234.133 207.961 234.133 207.961C234.133 207.961 246.568 202.882 249.499 212.488C252.43 222.096 249.578 227.572 247.75 228.485Z" fill="#AFCDFB"/>
<path d="M95.2508 242.019C89.8913 234.869 98.1312 222.249 98.1312 222.249C98.1312 222.249 113.511 221.185 115.011 218.594C116.511 216.003 101.727 216.121 101.727 216.121C103.722 210.403 114.856 200.47 114.856 200.47C114.856 200.47 127.461 211.308 128.431 208.31C129.4 205.313 116.898 199.464 116.898 199.464C120.406 195.141 127.207 193.81 127.207 193.81C137.464 193.493 137.243 210.861 137.243 210.861C137.243 210.861 141.673 214.492 148.463 214.79L148.463 214.79C148.463 214.79 149.784 214.695 151.778 215.098L151.147 216.526C150.804 216.42 150.467 216.333 150.134 216.268C150.132 216.267 150.13 216.267 150.128 216.267C150.123 216.266 150.118 216.266 150.113 216.265C149.903 216.234 149.602 216.192 149.234 216.144C149.234 216.144 149.233 216.144 149.233 216.144C149.232 216.144 149.232 216.145 149.231 216.144C148.39 216.083 147.781 216.01 147.352 215.932C147.351 215.931 147.35 215.931 147.348 215.931C144.735 215.677 141.251 215.526 140.139 216.356C140.139 216.356 140.04 216.068 139.777 215.669C139.893 215.888 140.013 216.116 140.139 216.356C143.035 221.851 138.296 234.583 134.225 240.581C130.155 246.578 130.009 242.491 129.263 237.008C128.517 231.526 132.537 224.32 132.612 221.338C132.688 218.357 130.293 220.963 128.552 225.707C126.81 230.45 129.254 235.364 126.542 243.105C123.831 250.847 110.889 248.402 110.889 248.402C114.32 244.253 116.213 233.546 115.042 232.18C113.87 230.813 108.06 244.362 106.736 246.152C105.412 247.943 100.61 249.17 95.2508 242.019Z" fill="#DFEBF9"/>
<path d="M97.0107 157.865C98.287 150.933 107.146 152.776 107.146 152.776C107.146 152.776 113.375 164.61 115.122 164.836C116.869 165.062 111.296 153.348 111.296 153.348C114.662 152.8 123.37 157.948 123.37 157.948C123.37 157.948 123.109 172.018 124.844 171.67C126.58 171.323 124.593 159.196 124.593 159.196C127.884 160.372 131.033 165.284 131.033 165.284C135.007 173.324 126.965 179.631 126.965 179.631C126.965 179.631 126.954 184.51 129.353 190.022L129.353 190.022C129.353 190.022 129.889 191.037 130.449 192.773L129.559 192.804C129.48 192.492 129.394 192.191 129.299 191.902C129.299 191.9 129.298 191.899 129.297 191.897C129.296 191.893 129.294 191.889 129.293 191.885C129.228 191.706 129.136 191.451 129.02 191.14C129.02 191.14 129.02 191.14 129.02 191.139C129.02 191.139 129.019 191.139 129.019 191.138C128.733 190.446 128.539 189.934 128.415 189.564C128.415 189.563 128.414 189.562 128.414 189.561C127.555 187.388 126.323 184.56 125.528 183.986C125.528 183.986 125.623 183.8 125.708 183.441C125.65 183.615 125.591 183.796 125.528 183.986C124.091 188.341 116.487 189.324 112.219 188.326C107.951 187.327 109.77 185.685 112.004 183.045C114.238 180.405 119.04 180.913 120.435 179.86C121.829 178.807 119.741 177.875 116.917 178.261C114.093 178.647 112.754 182.424 108.194 183.157C103.634 183.891 99.9233 172.685 99.9233 172.685C103.106 173.865 108.719 171.373 108.908 169.932C109.097 168.49 100.719 168.927 99.4042 168.542C98.0894 168.158 95.7345 164.797 97.0107 157.865Z" fill="#DFEBF9"/>
<path opacity="0.5" d="M245.417 180.015C250.78 174.023 243.991 161.552 243.991 161.552C243.991 161.552 229.934 158.929 228.716 156.389C227.499 153.85 241.068 155.54 241.068 155.54C239.588 150.075 229.976 139.763 229.976 139.763C229.976 139.763 217.733 148.365 217.028 145.509C216.322 142.653 228.163 138.621 228.163 138.621C225.208 134.275 219.046 132.325 219.046 132.325C209.646 130.936 208.778 146.908 208.778 146.908C208.778 146.908 204.486 149.769 198.232 149.316H198.232C198.232 149.316 197.026 149.086 195.17 149.243L195.661 150.622C195.982 150.561 196.297 150.518 196.607 150.494C196.609 150.493 196.611 150.493 196.613 150.494C196.617 150.493 196.622 150.493 196.626 150.493C196.822 150.487 197.1 150.481 197.441 150.476C197.441 150.476 197.442 150.476 197.442 150.476C197.443 150.476 197.443 150.477 197.444 150.476C198.22 150.51 198.784 150.509 199.182 150.482C199.184 150.483 199.185 150.482 199.186 150.482C201.601 150.529 204.81 150.763 205.78 151.644C205.78 151.644 205.888 151.391 206.155 151.052C206.035 151.241 205.91 151.438 205.78 151.644C202.781 156.38 206.348 168.579 209.716 174.522C213.084 180.465 213.47 176.728 214.493 171.773C215.516 166.818 212.269 159.772 212.384 157.025C212.499 154.279 214.537 156.929 215.843 161.471C217.15 166.014 214.603 170.264 216.616 177.663C218.628 185.062 230.663 184.203 230.663 184.203C227.768 180.026 226.691 169.99 227.85 168.861C229.01 167.732 233.51 180.795 234.615 182.581C235.72 184.367 240.055 186.008 245.417 180.015Z" fill="#AFCDFB"/>
<path d="M112.082 113.133C111.497 115.204 110.483 117.608 109.42 118.205C108.214 118.883 107.711 119.84 107.711 119.84L106.738 119.096L105.575 118.205C105.575 118.205 105.602 118.035 105.659 117.758C105.715 117.482 105.803 117.098 105.92 116.672C105.92 116.672 106.277 116.068 106.059 115.309C105.84 114.551 105.884 113.38 106.257 112.664C106.63 111.951 106.99 110.191 107.214 110.243C107.758 110.367 106.947 112.785 107.18 113.233C107.39 113.639 107.653 113.5 107.702 113.469C107.705 113.466 107.708 113.465 107.711 113.462C109.237 112.579 111.087 107.815 111.907 108.458C112.212 108.699 112.331 112.251 112.082 113.133Z" fill="#FFB27D"/>
<path d="M106.804 116.017L108.715 117.787C108.85 117.912 109.038 117.869 109.133 117.691L114.029 108.513C114.123 108.336 114.091 108.088 113.956 107.963L112.044 106.193C111.909 106.069 111.721 106.112 111.627 106.29L106.731 115.467C106.636 115.645 106.669 115.892 106.804 116.017Z" fill="#2B478B"/>
<path d="M108.553 117.637L109.674 118.675C109.776 118.77 109.92 118.737 109.992 118.601L114.97 109.27C115.042 109.134 115.017 108.946 114.914 108.85L113.794 107.813C113.691 107.718 113.548 107.751 113.476 107.887L108.498 117.218C108.426 117.354 108.451 117.542 108.553 117.637Z" fill="#233862"/>
<path d="M79.3861 102.848C79.3861 102.848 89.1108 125.194 92.6389 129.305L105.575 116.6C105.575 116.6 107.452 117.358 108.274 119.84C108.274 119.84 100.419 140.925 92.6841 141.819C84.9495 142.712 74.094 116.547 74.094 116.547L79.3861 102.848Z" fill="#233862"/>
<path d="M57.3792 254.83H51.7603C51.0529 254.324 50.4227 253.165 50.2235 251.438C49.9491 249.053 47.9203 247.753 47.4812 245.802C47.043 243.852 49.2914 241.107 49.2914 241.107L49.6676 240.468L50.0589 239.806L53.7882 240.963C53.7882 240.963 53.8807 242.133 53.9367 243.623C53.9774 244.699 53.9987 245.941 53.953 247.031C53.8432 249.632 54.5049 252.433 56.2594 252.939C57.5561 253.313 57.4981 254.326 57.3792 254.83Z" fill="#233862"/>
<path d="M89.9886 254.83H77.1388C76.5208 253.836 76.7485 250.17 76.842 248.973C76.8613 248.732 76.8745 248.591 76.8745 248.591C76.8745 248.591 81.2624 243.967 81.8652 247.508C81.8834 247.619 81.9059 247.727 81.9301 247.834C82.6895 251.146 86.0955 252.651 88.0623 253.07C89.3412 253.343 89.8138 254.219 89.9886 254.83Z" fill="#233862"/>
<path d="M87.5403 160.338C87.5403 160.338 86.8741 171.289 86.0909 184.454C85.0265 202.336 83.7465 224.302 83.6199 228.463C83.4011 235.689 82.5226 247.247 82.5226 247.247C82.5226 247.247 80.4398 249.993 76.2711 248.836C76.2711 248.836 72.5563 232.336 71.4951 214.878C71.4787 214.592 71.4622 214.304 71.4458 214.016C70.4587 196.244 68.9237 158.821 68.9237 158.821L87.5403 160.338Z" fill="#F99746"/>
<path d="M87.5403 160.338C87.5403 160.338 86.8741 171.289 86.0909 184.454L71.4951 214.878C71.4787 214.592 71.4622 214.304 71.4458 214.016C70.4587 196.244 68.9237 158.821 68.9237 158.821L87.5403 160.338Z" fill="#ED7D2B"/>
<path d="M84.4975 161.638C84.4975 161.638 72.4878 201.3 64.5911 219.939C56.6944 238.578 54.2266 243.779 54.2266 243.779C54.2266 243.779 49.7024 241.395 49.2911 239.77C49.2911 239.77 52.3108 203.786 57.5992 195.015C60.5874 190.058 64.0975 175.184 64.2621 169.982C64.4266 164.781 65.3315 154.486 65.3315 154.486L84.4975 161.638Z" fill="#F99746"/>
<path d="M81.5079 103.82C76.815 105.771 68.6947 100.506 68.6947 100.506C68.6947 100.506 73.0217 96.2274 72.795 87.332L76.4237 91.1845L78.8886 93.8011C78.8886 93.8011 78.8785 95.3437 78.6091 98.0472C78.5379 98.7582 78.4495 99.551 78.3377 100.417C80.3523 101.874 81.5079 103.82 81.5079 103.82Z" fill="#FFB27D"/>
<path d="M78.8885 93.8011C78.8885 93.8011 78.8783 95.3437 78.6089 98.0472C75.8777 97.4298 72.7797 91.6145 72.7797 91.6145C74.1701 91.0856 75.3879 90.9905 76.4237 91.1847L78.8885 93.8011Z" fill="#ED975D"/>
<path d="M80.3238 93.6546C80.3238 93.6546 72.572 95.3512 71.8444 88.9754C71.1168 82.5995 69.626 78.5244 74.5446 77.1715C79.4632 75.8188 80.7046 78.0608 81.3405 80.1111C81.9763 82.1613 82.3214 93.0489 80.3238 93.6546Z" fill="#FFB27D"/>
<path d="M88.058 161.25C87.9168 161.405 87.7527 161.498 87.5647 161.498C85.8025 161.466 80.6633 162.756 76.3149 162.167C72.6489 161.704 69.4043 160.273 65.9199 158.216C65.4573 157.942 64.3922 157.194 64.4162 156.512C64.4317 155.766 64.488 154.684 64.5587 153.321C64.8053 148.583 65.2351 140.434 64.816 131.032C64.7406 129.281 64.701 127.545 64.6963 125.835C64.6603 113.093 66.5784 101.885 70.4323 98.0916C70.7615 97.7808 72.7824 99.0821 74.6393 100.289C76.355 101.404 78.0706 101.527 79.6917 101.095L81.3128 102.983C83.287 105.397 85.4492 108.68 86.3891 113.663C87.1888 117.905 87.6582 125.553 87.9168 133.478C88.0341 137.069 88.1287 140.692 88.1526 144.129V144.252C88.1754 144.593 88.1754 144.965 88.1754 145.306C88.2699 154.129 88.1754 161.126 88.058 161.25Z" fill="#2B478B"/>
<path d="M64.5588 153.322C64.8055 148.583 65.2353 140.434 64.8162 131.032C64.7408 129.281 64.7012 127.545 64.6965 125.835C66.3019 120.704 67.6142 116.984 67.6142 116.984H71.6608C71.6608 116.984 74.6275 143.68 64.5588 153.322Z" fill="#233862"/>
<path d="M43.83 183.577L61.0888 186.817C63.335 187.239 65.4346 185.163 65.7547 182.204L66.8205 172.351C67.1407 169.392 65.5647 166.625 63.3185 166.204L46.0598 162.964C43.8136 162.542 41.7139 164.618 41.3939 167.577L40.3281 177.43C40.0079 180.39 41.5837 183.156 43.83 183.577Z" fill="#233862"/>
<path d="M64.2931 169.141V169.14C63.8082 167.541 62.7613 166.278 61.4338 165.85H61.4328C61.4317 165.85 61.4307 165.85 61.4298 165.848C61.2997 165.807 61.1676 165.772 61.0313 165.747L57.5948 165.103L57.8245 162.976C57.8764 162.502 57.7838 162.028 57.5643 161.642C57.3448 161.258 57.0246 161.008 56.6648 160.941L55.7683 160.772L52.16 160.094L51.5094 159.973C50.7643 159.833 50.0701 160.518 49.9644 161.501L49.7346 163.627L43.8027 162.513C41.5482 162.09 39.4411 164.173 39.1189 167.143L38.0414 177.111C37.7202 180.081 39.3017 182.857 41.5562 183.28L58.7839 186.515C59.0878 186.573 59.3887 186.584 59.6824 186.553H59.6834C59.6844 186.553 59.6844 186.553 59.6855 186.553C60.1571 186.506 60.6104 186.35 61.0302 186.106C62.2967 185.369 63.2583 183.813 63.4676 181.884L64.5459 171.917C64.6508 170.945 64.5523 169.996 64.2931 169.141ZM50.8121 161.66C50.8446 161.363 51.0215 161.138 51.236 161.092C51.2858 161.082 51.3366 161.08 51.3894 161.09L52.1557 161.233L54.9957 161.767L56.5437 162.058C56.8222 162.11 57.0163 162.451 56.9768 162.817L56.747 164.943L50.5823 163.785L50.8121 161.66Z" fill="#2B478B"/>
<path d="M56.9542 154.239C56.9542 154.239 56.0478 155.829 56.0119 156.465C55.7682 160.772 57.2623 161.368 53.3942 163.761C53.3942 163.761 51.7429 164.59 51.7147 162.902C51.6867 161.213 52.8607 161.185 52.6461 158.821C52.3985 156.093 52.4234 156.068 53.7822 154.644L54.682 152.685L56.9542 154.239Z" fill="#FFB27D"/>
<path d="M54.6493 155.458C56.1065 155.832 57.6861 155.681 57.6861 155.681C57.6861 155.681 62.0123 138.075 62.569 136.467C63.1257 134.858 75.419 115.823 75.419 115.823L70.2978 98.9391C70.2978 98.9391 57.0014 128.198 55.6513 132.31C53.4203 139.104 52.646 154.336 52.646 154.336C52.646 154.336 53.5047 155.164 54.6493 155.458Z" fill="#2B478B"/>
<path d="M71.838 88.3616C71.838 88.3616 72.6334 88.1865 72.5052 86.743C72.3769 85.2995 72.3783 83.4129 73.2694 83.7645C74.1603 84.1161 74.2045 85.0557 74.5706 84.507C74.9366 83.9583 74.9432 81.6465 77.5939 81.4857C80.2447 81.3248 81.3219 82.5401 82.5545 81.8262C83.7872 81.1124 83.8522 78.6544 83.8522 78.6544C83.8522 78.6544 83.5017 79.5321 82.9721 79.8111C82.9721 79.8111 85.0286 76.1057 82.6477 73.5649C80.2668 71.0241 77.8392 72.6874 76.4611 72.7973C73.4254 73.0394 71.4643 73.2794 70.4726 75.9073C69.4807 78.5352 69.89 85.832 71.838 88.3616Z" fill="#2B478B"/>
<path d="M55.5244 156.133C55.5244 156.133 56.3973 157.332 56.4522 157.83C56.6291 159.431 57.0348 160.122 56.8315 160.296C56.4089 160.658 55.8493 159.473 55.5821 158.41C55.3149 157.346 55.5244 156.133 55.5244 156.133Z" fill="#FFB27D"/>
<path d="M267.395 77.8653C267.395 77.8653 269.71 77.8653 272.106 79.8804C273.989 81.4637 278.249 89.4744 279.652 94.2409C281.054 99.0074 278.13 101.071 280.22 103.807C282.285 106.51 285.106 114.135 280.319 117.879C277.614 119.995 272.801 113.455 269.71 112.531C266.619 111.607 258.345 120.003 256.17 117.363C253.994 114.723 251.815 110.188 258.353 104.446C260.041 102.963 252.604 102.035 255.787 91.4056C257.981 84.0789 261.883 77.6568 267.395 77.8653Z" fill="#233862"/>
<path d="M243.878 123.874C243.878 123.767 245.07 120.521 244.691 120.271C244.311 120.021 243.632 120.059 243.553 120.628C243.474 121.197 243.878 123.874 243.878 123.874Z" fill="#FFB27D"/>
<path d="M261.668 83.5249C261.668 83.5249 267.501 75.785 271.201 82.8637C271.201 82.8637 273.485 81.9886 274.484 88.1779C275.502 94.4925 273.946 98.3528 272.298 97.1667C271.24 96.406 270.44 98.8429 270.44 98.8429L261.668 83.5249Z" fill="#233862"/>
<path d="M253.001 142.395C247.445 139.698 242.094 127.173 242.094 127.173L243.846 125.557C245.305 128.369 251.871 133.769 251.871 133.769C252.021 131.4 252.238 129.249 252.507 127.302C254.33 114.064 258.499 110.143 259.619 109.311C259.799 109.176 259.901 109.123 259.901 109.123C259.901 109.123 259.897 109.22 259.889 109.405C259.873 109.803 259.837 110.606 259.779 111.706C259.345 119.901 257.643 144.65 253.001 142.395Z" fill="#FFB27D"/>
<path d="M279.853 155.911C277.108 147.802 275.795 145.509 275.749 142.957C275.713 140.94 276.468 138.762 277.935 133.424C278.28 132.166 278.519 130.873 278.666 129.566C279.826 119.274 275.289 108.014 272.482 107.256C271.268 106.87 270.396 103.403 270.412 97.4135L270.06 97.5048L264.148 99.0471C264.148 99.0471 264.283 101.498 264.287 103.807C264.291 105.731 264.534 107.757 263.872 107.785C263.446 107.835 263.195 107.869 263.195 107.869C263.195 107.869 258.266 116.887 257.851 125.275C257.436 133.663 261.799 137.307 257.818 154.068C253.754 171.187 281.369 160.392 279.853 155.911Z" fill="#FFB27D"/>
<path d="M264.148 99.0468C264.148 99.0468 264.283 101.498 264.287 103.807C267.595 103.684 269.344 99.7082 270.06 97.5045L264.148 99.0468Z" fill="#E8945B"/>
<path d="M270.671 96.6567C270.671 96.6567 272.404 93.048 272.82 89.9622C273.117 87.7591 272.266 79.5933 266.037 80.7694C266.037 80.7694 264.228 81.0042 262.527 82.5174C261.175 83.7207 259.223 86.3185 261.405 93.4443L261.972 95.8515L270.671 96.6567Z" fill="#233862"/>
<path d="M263.043 101.233C263.043 101.233 270.871 101.403 270.876 94.9804C270.881 88.5574 271.895 84.2534 266.898 83.8733C261.901 83.4932 260.928 85.9426 260.53 88.086C260.132 90.2292 261.008 101.023 263.043 101.233Z" fill="#FFB27D"/>
<path d="M263.333 83.7157C263.333 83.7157 265.476 91.2512 268.765 92.3655C272.054 93.4796 273.48 92.3187 273.48 92.3187C273.48 92.3187 270.958 89.6786 270.434 85.07C270.434 85.07 264.95 80.1293 263.333 83.7157Z" fill="#233862"/>
<path d="M263.864 84.3276C263.864 84.3276 262.786 85.175 261.883 86.99C261.169 88.4236 260.457 89.6957 260.563 92.5338C260.563 92.5338 258.948 87.412 260.763 84.5146C262.687 81.4422 263.864 84.3276 263.864 84.3276Z" fill="#233862"/>
<path d="M272.922 233.725C270.953 244.045 267.989 251.957 267.989 251.957L265.408 251.721C265.408 251.721 266.673 243.788 266.601 233.07C266.55 225.576 265.846 216.72 263.599 208.264C255.875 179.206 257.124 158.058 257.124 158.058L271.647 160.296L272.324 160.401C272.384 169.188 272.557 181.118 272.707 190.447C272.84 198.838 272.957 205.123 272.957 205.123C275.75 213.045 274.735 224.228 272.922 233.725Z" fill="#163560"/>
<path d="M290.033 164.524L287.683 165.453C287.683 165.453 279.931 148.509 279.226 144.101C278.996 142.665 278.433 139.793 277.775 136.575C276.414 129.911 274.657 121.757 274.657 121.757L274.079 118.456L272.106 107.199C272.106 107.199 275.884 107.707 278.094 108.924C278.826 109.327 279.384 109.807 279.579 110.37C281.202 115.073 282.823 126.941 283.962 135.408C284.597 140.126 285.081 143.789 285.334 144.565C286.039 146.73 288.192 158.645 290.033 164.524Z" fill="#FFB27D"/>
<path d="M281.255 232.077C280.42 243.818 276.743 251.41 276.743 251.41L275.51 252.592C275.51 252.592 274.343 244.32 273.517 234.478C272.73 225.124 271.651 215.226 270.431 212.205C265.588 200.223 264.13 154.991 264.13 154.991L278.855 154.029C280.336 157.309 280.982 162.688 281.135 168.805C281.522 184.242 278.768 204.371 278.356 207.283C278.356 207.284 278.356 207.286 278.355 207.29C278.323 207.515 278.372 207.736 278.452 207.94C281.381 215.581 281.805 224.322 281.255 232.077Z" fill="#1C468A"/>
<path d="M281.699 161.765C281.724 162.419 281.697 162.942 281.607 163.316C281.294 164.614 280.218 165.206 277.617 164.852C276.027 164.634 275.318 161.124 275.002 158.129C274.047 162.414 272.71 164.818 270.982 165.323C268.46 166.062 255.738 168.1 254.906 160.133C253.99 151.371 256.732 135.856 256.883 127.491C256.509 124.525 256.381 121.95 256.422 119.739C256.528 113.78 257.985 110.317 259.006 108.973C260.81 108.068 263.67 107.798 263.659 107.821C263.444 108.328 262.715 111.263 262.837 112.761C263.212 117.414 266.856 116.912 270.06 114.098C272.427 112.019 273.766 107.489 273.766 107.489C273.766 107.489 278.493 107.996 279.601 110.381C281.72 114.944 283.375 127.071 284.701 135.597C281.486 137.931 278.678 137.236 277.806 136.928C278.945 146.748 281.529 157.291 281.699 161.765Z" fill="#F99746"/>
<path d="M243.846 125.557C243.847 125.239 244.049 120.633 243.426 119.665C242.804 118.698 241.533 117.322 241.134 117.364C240.734 117.406 239.171 120.142 239.641 122.239C240.111 124.336 242.094 127.173 242.094 127.173L243.846 125.557Z" fill="#FFB27D"/>
<path d="M246.7 119.923L243.077 121.353C242.957 121.401 242.83 121.311 242.794 121.153L240.723 112.051C240.687 111.893 240.755 111.726 240.876 111.679L244.499 110.248C244.619 110.201 244.746 110.29 244.782 110.449L246.852 119.55C246.888 119.708 246.82 119.875 246.7 119.923Z" fill="#F1A34F"/>
<path d="M245.759 120.295L242.472 121.592C242.259 121.676 242.034 121.517 241.97 121.236L240.001 112.578C239.937 112.298 240.058 112.002 240.271 111.917L243.558 110.62C243.771 110.536 243.995 110.695 244.059 110.976L246.029 119.634C246.093 119.914 245.972 120.21 245.759 120.295Z" fill="#D86713"/>
<path d="M269.475 254.808H267.827C267.275 254.693 266.868 254.483 266.302 254.386C265.442 254.237 265.046 254.701 264.967 254.808C264.957 254.822 264.952 254.83 264.952 254.83H257.952C257.776 254.499 257.945 253.731 258.111 253.166C258.222 252.783 258.465 252.492 258.766 252.377C259.508 252.094 260.972 251.842 262.312 250.243C263.066 249.346 265.953 246.943 265.953 246.943L265.968 246.939C266.032 246.94 266.333 247.062 267.646 248.523C268.325 249.277 269.482 247.459 269.482 247.459C269.482 247.459 269.7 247.695 269.862 248.136C269.992 248.484 270.087 248.963 270.012 249.552C269.907 250.383 270.245 251.927 270.514 252.972C270.677 253.604 270.814 254.053 270.814 254.053C270.814 254.053 270.893 254.574 269.475 254.808Z" fill="#1A2D4C"/>
<path d="M269.862 248.136C269.468 248.501 268.638 249.221 268.087 249.315C267.343 249.444 265.953 246.943 265.953 246.943L265.968 246.939C266.032 246.94 266.333 247.062 267.646 248.523C268.325 249.277 269.482 247.459 269.482 247.459C269.482 247.459 269.7 247.695 269.862 248.136Z" fill="#466AA5"/>
<path d="M269.475 254.808H267.827C267.275 254.693 266.868 254.483 266.302 254.386C265.442 254.237 265.046 254.701 264.967 254.808C264.957 254.822 264.952 254.83 264.952 254.83H257.952C257.776 254.499 257.945 253.731 258.111 253.166C258.323 252.917 258.383 254.248 258.501 254.46C258.618 254.672 264.211 254.537 264.534 254.228C264.857 253.918 265.826 253.377 267.177 253.802C268.352 254.172 270.085 253.224 270.514 252.971C270.677 253.604 270.814 254.053 270.814 254.053C270.814 254.053 270.893 254.574 269.475 254.808Z" fill="#3B6096"/>
<path d="M278.269 254.808H276.621C276.069 254.693 275.661 254.483 275.095 254.386C274.235 254.237 273.84 254.701 273.761 254.808C273.75 254.822 273.746 254.83 273.746 254.83H266.745C266.569 254.499 266.738 253.731 266.904 253.166C267.016 252.783 267.259 252.492 267.559 252.377C268.302 252.094 269.765 251.842 271.105 250.243C271.859 249.346 274.746 246.943 274.746 246.943L274.761 246.939C274.825 246.94 275.127 247.062 276.44 248.523C277.119 249.277 278.276 247.459 278.276 247.459C278.276 247.459 278.493 247.695 278.655 248.136C278.785 248.484 278.881 248.963 278.805 249.552C278.701 250.383 279.038 251.927 279.307 252.972C279.47 253.604 279.607 254.053 279.607 254.053C279.607 254.053 279.686 254.574 278.269 254.808Z" fill="#233862"/>
<path d="M278.655 248.136C278.262 248.501 277.431 249.221 276.88 249.315C276.137 249.444 274.746 246.943 274.746 246.943L274.762 246.939C274.825 246.94 275.127 247.062 276.44 248.523C277.119 249.277 278.276 247.459 278.276 247.459C278.276 247.459 278.493 247.695 278.655 248.136Z" fill="#466AA5"/>
<path d="M278.269 254.808H276.621C276.069 254.693 275.661 254.483 275.095 254.386C274.235 254.237 273.84 254.701 273.761 254.808C273.75 254.822 273.746 254.83 273.746 254.83H266.745C266.569 254.499 266.738 253.731 266.904 253.166C267.117 252.917 267.177 254.248 267.294 254.46C267.412 254.672 273.004 254.537 273.328 254.228C273.65 253.918 274.619 253.377 275.97 253.802C277.146 254.172 278.878 253.224 279.307 252.971C279.47 253.604 279.607 254.053 279.607 254.053C279.607 254.053 279.686 254.574 278.269 254.808Z" fill="#466AA5"/>
<path d="M281.699 161.765C279.913 158.058 278.866 153.572 277.468 148.434C273.865 135.2 274.411 127.966 275.286 127.7C276.16 127.434 277.806 136.928 277.806 136.928C278.945 146.748 281.529 157.291 281.699 161.765Z" fill="#EF7E29"/>
<path d="M257.659 129.083C257.377 129.062 257.103 129.006 256.837 128.92C256.777 128.901 256.716 128.88 256.656 128.857C255.946 128.588 255.301 128.116 254.751 127.597C253.555 126.471 252.232 124.539 252.232 124.539C254.561 110.873 259.006 108.973 259.006 108.973C259.006 108.973 260.424 129.277 257.659 129.083Z" fill="#F99746"/>
<path d="M240.76 117.718C240.76 117.718 242.268 114.659 242.637 114.83C243.163 115.072 241.269 118.953 241.269 118.953C241.269 118.953 242.673 116.053 242.892 116.271C243.391 116.768 242.596 118.59 241.808 119.987C241.808 119.987 243.219 118.284 243.265 118.591C243.426 119.665 241.716 122.268 241.716 122.268L240.76 119.391V117.718H240.76Z" fill="#FFB27D"/>
<path d="M239.628 120.557C239.701 120.183 240.069 112.88 240.227 113.573C240.385 114.266 240.76 118.095 240.76 118.095L239.628 120.557Z" fill="#FFB27D"/>
<path d="M273.828 124.012L276.71 137.815C276.71 137.815 282.713 138.361 284.701 135.598L281.069 123.308L273.828 124.012Z" fill="#F99746"/>
<path d="M256.837 128.92C256.777 128.901 256.716 128.88 256.656 128.857C255.946 128.588 255.301 128.116 254.751 127.597C254.893 127.178 255.12 126.666 255.46 126.25C256.163 125.387 256.745 121.869 256.988 122.157C257.23 122.445 256.837 128.92 256.837 128.92Z" fill="#EF7E29"/>
<path d="M290.033 164.524C290.033 164.524 292.867 167.007 293.301 168.053C293.734 169.1 294.745 172.953 294.745 172.953C294.745 172.953 294.023 173.096 293.301 171.431C292.579 169.766 290.195 169.909 289.401 169.005C288.607 168.101 287.683 165.453 287.683 165.453L290.033 164.524Z" fill="#FFB27D"/>
<path d="M287.991 166.272C287.991 166.272 288.462 169.195 289.04 170.051C289.618 170.907 290.412 172.334 290.737 171.954C291.062 171.573 290.376 168.386 290.376 168.386L287.991 166.272Z" fill="#FFB27D"/>
<path d="M292.904 168.386C292.976 168.529 295.467 172.017 295.467 172.017C295.467 172.017 294.564 172.556 294.312 172.017C294.059 171.478 292.904 168.386 292.904 168.386Z" fill="#FFB27D"/>
<path d="M218.165 47.9299V241.847C218.165 248.218 214.245 253.382 209.411 253.382H132.464C127.628 253.382 123.708 248.218 123.708 241.847V47.9299C123.708 41.5612 127.628 36.3974 132.464 36.3974H209.411C214.245 36.3974 218.165 41.5613 218.165 47.9299Z" fill="#AFCDFB"/>
<path d="M210.82 131.539C210.82 142.007 208.496 151.759 204.491 159.95C203.182 162.626 201.693 165.135 200.048 167.448C198.312 169.89 196.402 172.111 194.343 174.08C194.154 174.262 193.964 174.441 193.772 174.614C187.305 180.576 179.433 184.072 170.943 184.072C165.071 184.072 159.496 182.4 154.476 179.399C153.855 179.027 153.243 178.634 152.639 178.221C151.235 177.267 149.88 176.202 148.581 175.041C147.092 173.71 145.674 172.25 144.339 170.671C136.191 161.055 131.066 147.084 131.066 131.539C131.066 102.527 148.919 79.0079 170.943 79.0079C192.965 79.008 210.82 102.527 210.82 131.539Z" fill="#F9DDBF"/>
<path d="M204.491 159.95C203.182 162.626 201.693 165.135 200.047 167.448C198.312 169.89 196.402 172.111 194.343 174.08C194.154 174.262 193.964 174.441 193.771 174.614C189.031 173.396 183.28 165.435 178.401 162.082C177.531 161.485 176.689 161.035 175.886 160.795C173.056 159.949 168.112 162.904 163.105 165.963C160.118 167.787 157.108 169.647 154.511 170.761C154.488 170.772 154.466 170.783 154.443 170.792C152.102 171.787 150.098 172.168 148.753 171.356C148.489 171.199 148.249 170.991 148.039 170.736C147.154 169.66 146.267 168.432 145.52 167.062C142.492 161.516 141.745 153.639 152.529 144.168C156 141.12 140.285 142.131 146.831 120.268C151.343 105.199 159.788 89.0716 171.125 89.4999C171.125 89.4999 175.886 89.4999 180.814 93.6448C184.688 96.9005 190.218 111.717 193.103 121.519C195.988 131.323 190.349 137.536 194.9 142.805C199.645 148.302 203.603 154.306 204.491 159.95Z" fill="#233862"/>
<path d="M159.36 101.091C159.36 101.091 171.356 85.1726 178.965 99.7314C178.965 99.7314 183.664 97.9318 185.718 110.661C187.812 123.648 184.61 131.587 181.221 129.148C179.047 127.583 177.401 132.595 177.401 132.595L159.36 101.091Z" fill="#233862"/>
<path d="M194.343 174.08C194.154 174.262 193.964 174.442 193.771 174.615C187.305 180.577 179.433 184.073 170.943 184.073C165.071 184.073 159.496 182.4 154.476 179.4C153.855 179.028 153.243 178.634 152.638 178.221C153.134 175.744 153.757 173.31 154.446 170.978V170.976C154.468 170.904 154.489 170.833 154.51 170.762C157.778 159.794 162.499 151.158 162.499 151.158C162.499 151.158 162.507 151.156 162.524 151.156C162.53 151.154 162.537 151.154 162.547 151.151C162.56 151.149 162.573 151.147 162.589 151.145H162.594C162.608 151.143 162.624 151.141 162.642 151.139C162.663 151.134 162.685 151.132 162.709 151.13C162.775 151.123 162.857 151.113 162.952 151.097C162.982 151.093 163.01 151.089 163.039 151.087C163.066 151.084 163.09 151.08 163.115 151.078C163.141 151.074 163.164 151.071 163.189 151.069C163.207 151.067 163.225 151.065 163.245 151.063C163.266 151.06 163.286 151.058 163.304 151.056C163.476 151.034 163.673 151.011 163.892 150.985C165.406 150.649 164.754 146.762 164.746 142.805C164.744 141.914 164.732 141.014 164.716 140.138C164.713 139.993 164.709 139.848 164.706 139.703C164.704 139.571 164.701 139.442 164.698 139.314C164.695 139.199 164.693 139.087 164.69 138.976C164.69 138.933 164.688 138.89 164.686 138.849C164.68 138.568 164.672 138.293 164.663 138.022C164.657 137.797 164.65 137.579 164.644 137.367C164.609 136.346 164.573 135.437 164.542 134.717C164.539 134.635 164.535 134.555 164.532 134.477C164.53 134.468 164.53 134.462 164.53 134.455C164.529 134.405 164.527 134.358 164.524 134.31C164.519 134.193 164.512 134.083 164.507 133.981C164.504 133.908 164.501 133.841 164.498 133.776C164.494 133.689 164.491 133.607 164.486 133.533C164.486 133.521 164.486 133.51 164.485 133.499C164.48 133.384 164.475 133.289 164.471 133.213C164.47 133.187 164.468 133.164 164.467 133.142C164.462 133.057 164.46 133.014 164.46 133.014L175.928 130.022L176.62 129.843L177.342 129.655V129.665C177.339 130.661 177.352 131.623 177.377 132.551C177.654 143.095 179.584 149.206 181.06 149.719C181.615 150.091 182.858 150.301 184.058 150.487C185.319 150.68 186.535 150.846 186.865 151.142C190.359 154.267 193.184 163.225 194.343 174.08Z" fill="#FFB27D"/>
<path d="M164.46 133.015C164.46 133.015 164.737 138.056 164.745 142.805C171.549 142.552 175.146 134.375 176.619 129.843L164.46 133.015Z" fill="#E8945B"/>
<path d="M177.875 128.099C177.875 128.099 181.441 120.677 182.296 114.331C182.907 109.8 181.156 93.0053 168.345 95.424C168.345 95.424 164.624 95.9069 161.126 99.0189C158.345 101.494 154.331 106.837 158.819 121.492L159.985 126.443L177.875 128.099Z" fill="#233862"/>
<path d="M162.188 137.512C162.188 137.512 178.286 137.862 178.297 124.651C178.308 111.441 180.394 102.589 170.116 101.808C159.838 101.026 157.837 106.064 157.019 110.472C156.201 114.88 158.001 137.08 162.188 137.512Z" fill="#FFB27D"/>
<path d="M162.784 101.484C162.784 101.484 167.192 116.982 173.956 119.274C180.72 121.565 183.654 119.177 183.654 119.177C183.654 119.177 178.466 113.747 177.389 104.269C177.389 104.269 166.109 94.1074 162.784 101.484Z" fill="#233862"/>
<path d="M163.876 102.742C163.876 102.742 161.659 104.485 159.801 108.218C158.333 111.166 156.868 113.783 157.087 119.62C157.087 119.62 153.766 109.086 157.498 103.127C161.455 96.8078 163.876 102.742 163.876 102.742Z" fill="#233862"/>
<path d="M196.241 156.326C193.366 151.275 184.06 150.481 184.06 150.481C184.06 150.481 184.06 150.483 184.058 150.487C183.989 150.73 182.045 157.537 178.401 162.082C177.846 162.775 177.252 163.415 176.62 163.971C171.439 168.52 165.698 170.132 163.105 165.963C162.401 164.83 161.928 163.268 161.762 161.221C161.514 158.139 163.013 152.103 163.455 151.061C163.462 151.048 163.399 151.05 163.304 151.056C163.286 151.059 163.266 151.061 163.245 151.063C163.225 151.065 163.207 151.067 163.189 151.069C163.165 151.072 163.142 151.074 163.115 151.078C163.091 151.08 163.066 151.084 163.04 151.087C163.01 151.089 162.982 151.093 162.953 151.097C162.867 151.106 162.782 151.119 162.71 151.13C162.685 151.132 162.664 151.134 162.642 151.139C162.624 151.141 162.608 151.143 162.595 151.145H162.59C162.573 151.147 162.56 151.149 162.547 151.152C162.537 151.154 162.531 151.154 162.524 151.156C162.508 151.156 162.499 151.158 162.499 151.158C160.105 151.574 155.3 152.261 153.617 153.68C153.617 153.68 153.617 153.68 153.616 153.683C153.519 153.748 149.263 156.675 145.52 167.063C145.12 168.177 144.724 169.377 144.339 170.671C145.675 172.25 147.092 173.71 148.581 175.041C149.88 176.202 151.235 177.267 152.639 178.221C153.243 178.634 153.855 179.028 154.476 179.4C159.496 182.4 165.071 184.073 170.943 184.073C179.433 184.073 187.305 180.577 193.772 174.615C193.964 174.441 194.154 174.262 194.343 174.08C196.402 172.112 198.312 169.89 200.048 167.448C198.929 162.753 197.678 158.853 196.241 156.326Z" fill="#F99746"/>
<path d="M144.851 105.526H142.914V97.7178H149.37V100.269H144.851V105.526Z" fill="white"/>
<path d="M197.689 105.874H195.752V99.9209H191.762V97.3694H197.689V105.874Z" fill="white"/>
<path d="M197.689 155.571H191.233V153.019H195.752V147.763H197.689V155.571Z" fill="white"/>
<path d="M148.841 155.919H142.914V147.414H144.851V153.368H148.841V155.919Z" fill="white"/>
<path d="M204.622 235.552V252.751C204.622 252.962 204.619 253.173 204.613 253.382H137.761C137.755 253.173 137.751 252.962 137.751 252.751V235.552C137.751 227.706 141.595 221.287 146.293 221.287H196.08C200.778 221.287 204.622 227.706 204.622 235.552Z" fill="#F99746"/>
<path d="M209.41 254.83H132.463C127.03 254.83 122.609 249.006 122.609 241.848V47.9308C122.609 40.7726 127.03 34.9491 132.463 34.9491H209.41C214.844 34.9491 219.265 40.7726 219.265 47.9308V241.848C219.265 249.006 214.844 254.83 209.41 254.83ZM132.463 37.8443C128.241 37.8443 124.807 42.3691 124.807 47.9308V241.848C124.807 247.41 128.241 251.934 132.463 251.934H209.41C213.632 251.934 217.067 247.41 217.067 241.848V47.9308C217.067 42.3693 213.632 37.8443 209.41 37.8443H132.463Z" fill="#2B478B"/>
<path d="M170.303 242.826L166 237.751L167.209 235.971L169.989 239.25L173.835 232L175.321 233.368L170.303 242.826Z" fill="white"/>
<path d="M171 247C165.486 247 161 242.514 161 237C161 231.486 165.486 227 171 227C176.514 227 181 231.486 181 237C181 242.514 176.514 247 171 247ZM171 227.401C165.707 227.401 161.401 231.707 161.401 237C161.401 242.293 165.707 246.599 171 246.599C176.293 246.599 180.599 242.293 180.599 237C180.599 231.707 176.293 227.401 171 227.401Z" fill="white"/>
<path d="M202.461 196.048H140.471V196.779H202.461V196.048Z" fill="#EBF3FA"/>
<path d="M140.472 199.088C141.593 199.088 142.501 197.89 142.501 196.414C142.501 194.937 141.593 193.74 140.472 193.74C139.351 193.74 138.442 194.937 138.442 196.414C138.442 197.89 139.351 199.088 140.472 199.088Z" fill="#F99746"/>
<path d="M171.467 200C172.97 200 174.189 198.394 174.189 196.414C174.189 194.433 172.97 192.828 171.467 192.828C169.963 192.828 168.745 194.433 168.745 196.414C168.745 198.394 169.963 200 171.467 200Z" fill="#F99746"/>
<path d="M202.461 199.088C203.582 199.088 204.491 197.89 204.491 196.414C204.491 194.937 203.582 193.74 202.461 193.74C201.34 193.74 200.432 194.937 200.432 196.414C200.432 197.89 201.34 199.088 202.461 199.088Z" fill="#EBF3FA"/>
<path d="M171.423 196.048H140.471V196.779H171.423V196.048Z" fill="#F99746"/>
<path d="M131.418 66.4459V66.0802H137.633L141.412 56.6201H141.496C144.445 56.6201 148.905 56.5828 149.355 56.4807L157.06 46.3302H168.33V46.696H157.175L149.562 56.7259C149.497 56.8943 149.02 56.9278 145.466 56.9651C143.721 56.9833 141.976 56.9855 141.58 56.9855L137.8 66.4459H131.418Z" fill="#EBF3FA"/>
<path d="M150.802 58.2201V55.6903L149.139 54.4255L147.476 55.6903V58.2201L149.139 59.4848L150.802 58.2201Z" fill="#EBF3FA"/>
<path d="M158.865 48.1514V45.6217L157.202 44.3568L155.539 45.6217V48.1514L157.202 49.4163L158.865 48.1514Z" fill="#EBF3FA"/>
<path d="M163.085 64.997V62.4672L161.422 61.2024L159.759 62.4672V64.997L161.422 66.2619L163.085 64.997Z" fill="#EBF3FA"/>
<path d="M139.632 67.5142V64.9844L137.969 63.7195L136.306 64.9844V67.5142L137.969 68.7789L139.632 67.5142Z" fill="#EBF3FA"/>
<path d="M131.306 66.9311V65.5676L130.41 64.8858L129.513 65.5676V66.9311L130.41 67.613L131.306 66.9311Z" fill="#EBF3FA"/>
<path d="M169.226 47.3968V46.0331L168.33 45.3514L167.434 46.0331V47.3968L168.33 48.0785L169.226 47.3968Z" fill="#EBF3FA"/>
<path d="M149.34 56.7728L149.525 56.5012L155.617 63.7014H160.267V64.0669H155.511L155.471 64.02L149.34 56.7728Z" fill="#EBF3FA"/>
<path d="M187.372 65.0861H190.472L192.023 68.6238L190.472 72.1614H187.372L185.821 68.6238L187.372 65.0861Z" fill="#EBF3FA"/>
<path d="M170.678 55.0829H172.226L173.001 56.849L172.226 58.6152H170.678L169.904 56.849L170.678 55.0829Z" fill="#EBF3FA"/>
<path d="M177.991 66.9691H179.539L180.313 68.7353L179.539 70.5015H177.991L177.217 68.7353L177.991 66.9691Z" fill="#EBF3FA"/>
<path d="M202.139 76.6252H203.687L204.461 78.3914L203.687 80.1576H202.139L201.365 78.3914L202.139 76.6252Z" fill="#EBF3FA"/>
<path d="M207.928 60.1674H209.476L210.25 61.9335L209.476 63.6999H207.928L207.154 61.9335L207.928 60.1674Z" fill="#EBF3FA"/>
<path d="M187.278 65.1666L187.466 65.0058L183.295 56.5679H172.367V56.8625H183.174L187.278 65.1666Z" fill="#EBF3FA"/>
<path d="M202.125 76.9784L202.33 76.8608L199.558 68.4765H192.023V68.771H199.412L202.125 76.9784Z" fill="#EBF3FA"/>
<path d="M199.576 68.7098L203.199 62.0808H208.626V61.7863H203.084L199.394 68.5377L199.576 68.7098Z" fill="#EBF3FA"/>
<path d="M185.821 68.4765H179.476V68.771H185.821V68.4765Z" fill="#EBF3FA"/>
<rect x="298" y="114" width="23" height="29" fill="#CEEBFF"/>
</svg>
